<?xml version="1.0" encoding="UTF-8"?>
<svg xmlns="http://www.w3.org/2000/svg" xmlns:xlink="http://www.w3.org/1999/xlink" width="30px" height="30px" viewBox="0 0 30 30" version="1.1">
<g id="surface1">
<path style=" stroke:none;fill-rule:nonzero;fill:rgb(0%,0%,0%);fill-opacity:1;" d="M 14.5 2 C 14.390625 2.109375 14.300781 2.238281 14.300781 2.289062 C 14.300781 2.449219 14.601562 2.699219 14.789062 2.699219 C 15.191406 2.699219 15.359375 2.089844 15.011719 1.898438 C 14.75 1.769531 14.730469 1.769531 14.5 2 Z M 14.5 2 "/>
<path style=" stroke:none;fill-rule:nonzero;fill:rgb(0%,0%,0%);fill-opacity:1;" d="M 11.398438 2.75 C 11.199219 2.988281 11.320312 3.25 11.640625 3.25 C 12 3.25 12.199219 2.988281 12.011719 2.761719 C 11.839844 2.558594 11.558594 2.550781 11.398438 2.75 Z M 11.398438 2.75 "/>
<path style=" stroke:none;fill-rule:nonzero;fill:rgb(0%,0%,0%);fill-opacity:1;" d="M 17.589844 2.761719 C 17.421875 2.96875 17.589844 3.25 17.898438 3.25 C 18.210938 3.25 18.378906 2.96875 18.210938 2.761719 C 18.128906 2.671875 18 2.601562 17.898438 2.601562 C 17.800781 2.601562 17.671875 2.671875 17.589844 2.761719 Z M 17.589844 2.761719 "/>
<path style=" stroke:none;fill-rule:nonzero;fill:rgb(0%,0%,0%);fill-opacity:1;" d="M 13.828125 3.308594 C 13.589844 3.570312 13.328125 3.859375 13.25 3.960938 C 13.121094 4.140625 13.089844 4.128906 12.671875 3.71875 C 12.289062 3.339844 12.199219 3.300781 11.988281 3.390625 C 11.859375 3.441406 11.628906 3.511719 11.480469 3.539062 C 11.25 3.589844 11.199219 3.679688 11.089844 4.148438 L 10.96875 4.691406 L 10.621094 4.398438 C 10.25 4.101562 10.210938 4.101562 9.398438 4.5 C 9.320312 4.539062 9.21875 4.761719 9.179688 5 C 9.140625 5.230469 9.089844 5.449219 9.058594 5.46875 C 9.039062 5.5 8.839844 5.398438 8.628906 5.261719 C 8.429688 5.121094 8.191406 5 8.121094 5 C 7.96875 5 7.078125 5.488281 6.988281 5.628906 C 6.949219 5.691406 6.890625 6.019531 6.851562 6.378906 C 6.761719 7.25 6.75 7.269531 6.320312 7.351562 C 6.121094 7.390625 5.828125 7.539062 5.691406 7.679688 C 5.550781 7.828125 5.300781 8.019531 5.128906 8.109375 C 4.890625 8.238281 4.800781 8.390625 4.671875 8.859375 C 4.589844 9.191406 4.480469 9.550781 4.449219 9.671875 C 4.398438 9.839844 4.421875 9.898438 4.53125 9.898438 C 4.75 9.898438 4.878906 9.699219 5.089844 9.039062 C 5.300781 8.359375 5.339844 8.410156 5.5 9.621094 C 5.609375 10.421875 5.640625 10.488281 5.800781 10.398438 C 6.019531 10.28125 6.050781 10.320312 6.140625 10.808594 C 6.179688 11.019531 6.269531 11.230469 6.351562 11.300781 C 6.589844 11.5 6.640625 11.179688 6.46875 10.601562 C 6.328125 10.128906 6.328125 10.089844 6.5 10 C 6.660156 9.921875 6.71875 9.96875 6.910156 10.300781 C 7.128906 10.691406 7.328125 10.800781 7.449219 10.601562 C 7.480469 10.550781 7.390625 10.328125 7.25 10.128906 C 7 9.75 7 9.75 7.199219 9.601562 C 7.398438 9.449219 7.390625 9.429688 6.75 8.730469 C 6.390625 8.339844 6.101562 7.980469 6.101562 7.929688 C 6.101562 7.878906 6.308594 7.769531 6.578125 7.691406 C 7.039062 7.550781 7.050781 7.539062 7.128906 7.050781 C 7.179688 6.769531 7.238281 6.441406 7.261719 6.308594 C 7.300781 6.121094 7.449219 6.359375 7.96875 7.429688 C 8.578125 8.691406 8.789062 8.960938 8.949219 8.699219 C 8.980469 8.648438 8.871094 8.308594 8.699219 7.941406 C 8.378906 7.238281 8.351562 7.101562 8.480469 7.101562 C 8.53125 7.101562 8.691406 7.371094 8.851562 7.699219 C 9.191406 8.410156 9.351562 8.589844 9.519531 8.421875 C 9.660156 8.28125 9.5 7.921875 8.730469 6.519531 C 8.441406 5.988281 8.21875 5.550781 8.238281 5.519531 C 8.261719 5.5 8.46875 5.609375 8.699219 5.761719 C 9.070312 6 9.128906 6.019531 9.261719 5.878906 C 9.351562 5.800781 9.441406 5.539062 9.46875 5.308594 C 9.539062 4.820312 9.699219 4.761719 9.699219 5.21875 C 9.699219 5.941406 9.828125 6.609375 9.949219 6.558594 C 10.03125 6.53125 10.109375 6.710938 10.191406 7.058594 C 10.308594 7.570312 10.441406 7.789062 10.570312 7.660156 C 10.601562 7.628906 10.558594 7.339844 10.480469 7.011719 C 10.390625 6.679688 10.351562 6.378906 10.378906 6.351562 C 10.511719 6.230469 10.578125 6.328125 10.691406 6.851562 C 10.808594 7.378906 10.941406 7.589844 11.078125 7.460938 C 11.128906 7.398438 11 6.789062 10.851562 6.371094 C 10.800781 6.25 10.828125 6.199219 10.941406 6.199219 C 11.191406 6.199219 11.140625 6.050781 10.648438 5.328125 C 10.191406 4.628906 10.140625 4.410156 10.53125 4.78125 C 10.929688 5.160156 11.21875 5.039062 11.351562 4.429688 C 11.429688 4.011719 11.640625 3.859375 11.570312 4.261719 C 11.539062 4.421875 11.480469 4.839844 11.441406 5.191406 C 11.390625 5.699219 11.398438 5.820312 11.511719 5.78125 C 11.609375 5.738281 11.679688 5.898438 11.75 6.339844 C 11.878906 7.140625 12.058594 7.078125 12.011719 6.25 C 11.96875 5.480469 12.148438 5.351562 12.25 6.070312 C 12.339844 6.710938 12.378906 6.820312 12.511719 6.75 C 12.578125 6.699219 12.589844 6.480469 12.550781 6.089844 C 12.488281 5.539062 12.5 5.5 12.679688 5.5 C 12.871094 5.5 12.859375 5.449219 12.539062 4.691406 C 12.351562 4.25 12.199219 3.859375 12.199219 3.828125 C 12.199219 3.800781 12.378906 3.941406 12.601562 4.140625 C 12.820312 4.339844 13.058594 4.5 13.140625 4.5 C 13.210938 4.5 13.511719 4.25 13.800781 3.941406 C 14.089844 3.640625 14.339844 3.398438 14.351562 3.421875 C 14.371094 3.441406 14.28125 3.828125 14.140625 4.289062 C 13.851562 5.308594 13.839844 5.398438 14.101562 5.328125 C 14.28125 5.28125 14.300781 5.328125 14.300781 5.679688 L 14.300781 6.070312 L 12.28125 7.210938 C 8.558594 9.289062 8.160156 9.539062 8.058594 9.828125 C 7.851562 10.421875 8.421875 11.050781 8.921875 10.789062 C 9.050781 10.71875 9.191406 10.609375 9.230469 10.53125 C 9.300781 10.421875 9.601562 10.390625 10.730469 10.410156 L 12.148438 10.429688 L 12.148438 9.78125 L 10.601562 9.789062 C 9.53125 9.789062 9.101562 9.761719 9.199219 9.691406 C 9.28125 9.640625 10.578125 8.898438 12.078125 8.058594 L 14.800781 6.519531 L 17.53125 8.058594 C 19.019531 8.898438 20.320312 9.640625 20.398438 9.691406 C 20.5 9.761719 20.050781 9.789062 18.96875 9.769531 L 17.398438 9.75 L 17.398438 10.449219 L 18.800781 10.421875 C 20.160156 10.390625 20.210938 10.390625 20.390625 10.609375 C 20.640625 10.921875 21.171875 10.910156 21.421875 10.609375 C 21.621094 10.351562 21.648438 9.988281 21.5 9.699219 C 21.421875 9.550781 16.949219 6.929688 15.628906 6.261719 C 15.339844 6.109375 15.300781 6.050781 15.300781 5.691406 C 15.300781 5.328125 15.320312 5.28125 15.5 5.328125 C 15.75 5.390625 15.75 5.441406 15.460938 4.351562 C 15.328125 3.851562 15.230469 3.441406 15.25 3.421875 C 15.261719 3.398438 15.511719 3.640625 15.800781 3.941406 C 16.089844 4.25 16.390625 4.5 16.460938 4.5 C 16.539062 4.5 16.78125 4.339844 17 4.140625 C 17.21875 3.941406 17.398438 3.800781 17.398438 3.828125 C 17.398438 3.859375 17.25 4.238281 17.058594 4.691406 C 16.761719 5.390625 16.730469 5.488281 16.878906 5.519531 C 17.019531 5.550781 17.050781 5.671875 17.050781 6.121094 C 17.050781 6.691406 17.230469 6.980469 17.28125 6.5 C 17.339844 5.878906 17.421875 5.601562 17.511719 5.601562 C 17.578125 5.601562 17.609375 5.839844 17.578125 6.25 C 17.539062 7.078125 17.71875 7.140625 17.851562 6.339844 C 17.921875 5.898438 17.988281 5.738281 18.089844 5.78125 C 18.199219 5.820312 18.210938 5.699219 18.160156 5.191406 C 18.121094 4.839844 18.058594 4.410156 18.03125 4.25 C 17.949219 3.808594 18.128906 4.039062 18.25 4.53125 C 18.378906 5.039062 18.691406 5.140625 19.058594 4.789062 C 19.398438 4.46875 19.359375 4.609375 18.898438 5.390625 C 18.460938 6.128906 18.441406 6.199219 18.640625 6.199219 C 18.761719 6.199219 18.761719 6.269531 18.640625 6.671875 C 18.46875 7.238281 18.460938 7.53125 18.621094 7.480469 C 18.691406 7.449219 18.808594 7.179688 18.878906 6.871094 C 18.96875 6.488281 19.058594 6.328125 19.148438 6.359375 C 19.25 6.398438 19.25 6.5 19.140625 6.871094 C 18.96875 7.441406 18.960938 7.730469 19.121094 7.679688 C 19.191406 7.648438 19.308594 7.378906 19.378906 7.070312 C 19.480469 6.691406 19.558594 6.53125 19.648438 6.558594 C 19.75 6.601562 19.800781 6.398438 19.851562 5.738281 C 19.929688 4.878906 20.011719 4.808594 20.140625 5.519531 C 20.230469 6.011719 20.5 6.050781 21.03125 5.679688 C 21.179688 5.570312 21.328125 5.5 21.351562 5.519531 C 21.378906 5.550781 21.078125 6.160156 20.691406 6.890625 C 20.300781 7.609375 20.011719 8.269531 20.039062 8.351562 C 20.148438 8.660156 20.371094 8.480469 20.699219 7.800781 C 20.890625 7.410156 21.070312 7.101562 21.121094 7.101562 C 21.25 7.101562 21.21875 7.238281 20.910156 7.960938 C 20.75 8.339844 20.640625 8.679688 20.671875 8.730469 C 20.808594 8.96875 21.070312 8.621094 21.621094 7.421875 C 21.960938 6.699219 22.25 6.121094 22.269531 6.140625 C 22.289062 6.160156 22.351562 6.460938 22.410156 6.808594 C 22.519531 7.519531 22.628906 7.648438 23.210938 7.75 C 23.421875 7.789062 23.601562 7.839844 23.601562 7.871094 C 23.601562 7.910156 23.289062 8.28125 22.898438 8.699219 C 22.21875 9.460938 22.210938 9.480469 22.410156 9.621094 L 22.621094 9.761719 L 22.359375 10.140625 C 22.21875 10.351562 22.128906 10.558594 22.160156 10.609375 C 22.269531 10.789062 22.460938 10.691406 22.699219 10.308594 C 22.890625 10 22.96875 9.929688 23.109375 10 C 23.261719 10.078125 23.261719 10.140625 23.140625 10.621094 C 23.058594 10.910156 23.019531 11.210938 23.050781 11.269531 C 23.101562 11.421875 23.398438 11.328125 23.398438 11.160156 C 23.398438 11.101562 23.449219 10.878906 23.511719 10.671875 C 23.601562 10.351562 23.640625 10.308594 23.761719 10.410156 C 23.839844 10.46875 23.929688 10.511719 23.960938 10.480469 C 23.980469 10.449219 24.058594 10.03125 24.121094 9.539062 C 24.179688 9.050781 24.269531 8.609375 24.308594 8.570312 C 24.351562 8.519531 24.449219 8.730469 24.539062 9.03125 C 24.691406 9.558594 24.910156 9.898438 25.101562 9.898438 C 25.269531 9.898438 25.308594 9.699219 25.171875 9.480469 C 25.089844 9.351562 24.96875 9.011719 24.898438 8.71875 C 24.800781 8.28125 24.730469 8.171875 24.460938 8.058594 C 24.289062 7.988281 24.039062 7.808594 23.910156 7.671875 C 23.78125 7.519531 23.519531 7.390625 23.289062 7.351562 C 22.871094 7.28125 22.851562 7.238281 22.75 6.339844 C 22.710938 6.011719 22.648438 5.691406 22.621094 5.640625 C 22.519531 5.5 21.640625 5 21.480469 5 C 21.410156 5 21.171875 5.121094 20.960938 5.261719 C 20.539062 5.550781 20.398438 5.488281 20.398438 5.019531 C 20.398438 4.699219 20.21875 4.398438 20.039062 4.398438 C 19.960938 4.398438 19.761719 4.328125 19.601562 4.25 C 19.320312 4.109375 19.289062 4.109375 18.96875 4.398438 L 18.628906 4.691406 L 18.511719 4.148438 C 18.398438 3.679688 18.351562 3.589844 18.121094 3.539062 C 17.96875 3.511719 17.738281 3.449219 17.601562 3.398438 C 17.390625 3.339844 17.28125 3.390625 16.941406 3.71875 L 16.53125 4.109375 L 15.921875 3.46875 C 15.308594 2.851562 15.289062 2.839844 14.78125 2.839844 C 14.300781 2.851562 14.238281 2.878906 13.828125 3.308594 Z M 15.039062 3.871094 C 15.171875 5.140625 15.199219 5.050781 14.761719 5.070312 L 14.371094 5.089844 L 14.460938 4.621094 C 14.5 4.359375 14.539062 3.941406 14.539062 3.671875 C 14.550781 3.261719 14.578125 3.199219 14.761719 3.199219 C 14.949219 3.199219 14.980469 3.28125 15.039062 3.871094 Z M 11.941406 4.109375 C 11.960938 4.238281 12.050781 4.519531 12.140625 4.71875 C 12.351562 5.199219 12.339844 5.269531 12.101562 5.328125 C 11.890625 5.378906 11.871094 5.308594 11.769531 4.328125 C 11.710938 3.78125 11.871094 3.578125 11.941406 4.109375 Z M 17.800781 4.46875 C 17.761719 4.730469 17.738281 5.03125 17.761719 5.128906 C 17.789062 5.328125 17.539062 5.480469 17.390625 5.328125 C 17.28125 5.21875 17.671875 3.871094 17.789062 3.941406 C 17.828125 3.96875 17.839844 4.210938 17.800781 4.46875 Z M 19.648438 4.921875 C 19.621094 5.050781 19.558594 5.261719 19.539062 5.398438 C 19.511719 5.539062 19.46875 5.75 19.441406 5.871094 C 19.390625 6.109375 19.101562 6.191406 19.101562 5.96875 C 19.101562 5.910156 19.210938 5.628906 19.351562 5.359375 C 19.480469 5.089844 19.570312 4.839844 19.539062 4.789062 C 19.511719 4.738281 19.539062 4.699219 19.609375 4.699219 C 19.679688 4.699219 19.699219 4.78125 19.648438 4.921875 Z M 10.5 5.910156 C 10.5 6.140625 10.25 6.160156 10.160156 5.941406 C 10.128906 5.851562 10.101562 5.660156 10.101562 5.519531 L 10.109375 5.25 L 10.300781 5.488281 C 10.410156 5.621094 10.5 5.808594 10.5 5.910156 Z M 15 5.550781 C 15 5.730469 14.949219 5.800781 14.800781 5.800781 C 14.648438 5.800781 14.601562 5.730469 14.601562 5.550781 C 14.601562 5.371094 14.648438 5.300781 14.800781 5.300781 C 14.949219 5.300781 15 5.371094 15 5.550781 Z M 8 5.699219 C 8 5.820312 8.089844 6.078125 8.199219 6.300781 C 8.441406 6.769531 8.449219 6.898438 8.25 6.898438 C 8.171875 6.898438 8.101562 6.859375 8.101562 6.808594 C 8.101562 6.761719 7.941406 6.511719 7.738281 6.25 C 7.410156 5.808594 7.398438 5.769531 7.570312 5.640625 C 7.828125 5.449219 8 5.46875 8 5.699219 Z M 22.050781 5.660156 C 22.199219 5.808594 22.191406 5.851562 21.96875 6.089844 C 21.828125 6.230469 21.648438 6.5 21.550781 6.691406 C 21.398438 6.980469 21.359375 7.011719 21.289062 6.871094 C 21.21875 6.761719 21.261719 6.578125 21.398438 6.308594 C 21.511719 6.089844 21.601562 5.820312 21.601562 5.699219 C 21.601562 5.460938 21.820312 5.441406 22.050781 5.660156 Z M 6.328125 8.800781 C 6.78125 9.351562 6.851562 9.601562 6.578125 9.601562 C 6.511719 9.601562 6.371094 9.691406 6.25 9.800781 L 6.03125 10.011719 L 5.921875 9.730469 C 5.859375 9.578125 5.789062 9.269531 5.75 9.050781 C 5.710938 8.828125 5.640625 8.601562 5.578125 8.53125 C 5.46875 8.390625 5.550781 8.199219 5.730469 8.199219 C 5.800781 8.199219 6.070312 8.46875 6.328125 8.800781 Z M 24.050781 8.300781 C 24.089844 8.359375 24.070312 8.460938 24.019531 8.53125 C 23.960938 8.601562 23.859375 8.929688 23.800781 9.269531 C 23.730469 9.621094 23.628906 9.898438 23.570312 9.898438 C 23.519531 9.898438 23.320312 9.808594 23.128906 9.691406 L 22.789062 9.480469 L 23.050781 9.160156 C 23.191406 8.988281 23.398438 8.699219 23.53125 8.53125 C 23.75 8.199219 23.941406 8.121094 24.050781 8.300781 Z M 8.878906 10.230469 C 8.898438 10.351562 8.851562 10.398438 8.710938 10.398438 C 8.589844 10.398438 8.5 10.339844 8.5 10.269531 C 8.5 9.960938 8.820312 9.929688 8.878906 10.230469 Z M 21.078125 10.230469 C 21.101562 10.351562 21.050781 10.398438 20.910156 10.398438 C 20.789062 10.398438 20.699219 10.339844 20.699219 10.269531 C 20.699219 9.960938 21.019531 9.929688 21.078125 10.230469 Z M 21.078125 10.230469 "/>
<path style=" stroke:none;fill-rule:nonzero;fill:rgb(0%,0%,0%);fill-opacity:1;" d="M 9.300781 3.699219 C 9.210938 3.859375 9.21875 3.949219 9.308594 4.058594 C 9.570312 4.378906 10.148438 4.058594 9.929688 3.71875 C 9.769531 3.460938 9.429688 3.449219 9.300781 3.699219 Z M 9.300781 3.699219 "/>
<path style=" stroke:none;fill-rule:nonzero;fill:rgb(0%,0%,0%);fill-opacity:1;" d="M 19.640625 3.640625 C 19.519531 3.949219 19.640625 4.148438 19.949219 4.148438 C 20.21875 4.148438 20.25 4.121094 20.25 3.851562 C 20.25 3.601562 20.210938 3.550781 19.96875 3.519531 C 19.800781 3.5 19.679688 3.539062 19.640625 3.640625 Z M 19.640625 3.640625 "/>
<path style=" stroke:none;fill-rule:nonzero;fill:rgb(0%,0%,0%);fill-opacity:1;" d="M 7.019531 4.421875 C 6.828125 4.609375 6.878906 4.980469 7.101562 5.101562 C 7.480469 5.308594 7.898438 4.878906 7.699219 4.488281 C 7.578125 4.28125 7.199219 4.238281 7.019531 4.421875 Z M 7.019531 4.421875 "/>
<path style=" stroke:none;fill-rule:nonzero;fill:rgb(0%,0%,0%);fill-opacity:1;" d="M 21.898438 4.488281 C 21.75 4.78125 21.769531 4.878906 22.039062 5.050781 C 22.351562 5.261719 22.699219 5.101562 22.699219 4.769531 C 22.699219 4.308594 22.109375 4.109375 21.898438 4.488281 Z M 21.898438 4.488281 "/>
<path style=" stroke:none;fill-rule:nonzero;fill:rgb(0%,0%,0%);fill-opacity:1;" d="M 5.019531 6.871094 C 4.96875 6.96875 4.898438 7.179688 4.859375 7.328125 C 4.808594 7.53125 4.699219 7.648438 4.488281 7.71875 C 4.128906 7.839844 4.269531 8 4.730469 8 C 5.070312 8 5.699219 7.429688 5.699219 7.128906 C 5.699219 6.730469 5.191406 6.539062 5.019531 6.871094 Z M 5.019531 6.871094 "/>
<path style=" stroke:none;fill-rule:nonzero;fill:rgb(0%,0%,0%);fill-opacity:1;" d="M 24.019531 6.820312 C 23.828125 7.011719 23.878906 7.261719 24.148438 7.578125 C 24.429688 7.910156 24.859375 8.058594 25.21875 7.941406 C 25.429688 7.878906 25.421875 7.859375 25.101562 7.710938 C 24.898438 7.621094 24.738281 7.460938 24.71875 7.351562 C 24.691406 7.148438 24.691406 7.148438 24.808594 7.351562 C 24.929688 7.539062 24.929688 7.539062 25 7.351562 C 25.101562 7.070312 24.929688 6.75 24.75 6.898438 C 24.660156 6.980469 24.609375 6.96875 24.558594 6.851562 C 24.488281 6.671875 24.191406 6.648438 24.019531 6.820312 Z M 24.019531 6.820312 "/>
<path style=" stroke:none;fill-rule:nonzero;fill:rgb(0%,0%,0%);fill-opacity:1;" d="M 4.628906 6.910156 C 4.46875 7.070312 4.460938 7.359375 4.601562 7.449219 C 4.730469 7.53125 4.828125 7.28125 4.78125 7 C 4.761719 6.828125 4.730469 6.808594 4.628906 6.910156 Z M 4.628906 6.910156 "/>
<path style=" stroke:none;fill-rule:nonzero;fill:rgb(0%,0%,0%);fill-opacity:1;" d="M 12.949219 8.058594 C 12.011719 8.589844 11.140625 9.078125 11 9.148438 C 10.789062 9.269531 11.328125 9.289062 14.828125 9.320312 C 17.070312 9.339844 18.898438 9.328125 18.898438 9.300781 C 18.890625 9.269531 18.679688 9.148438 18.421875 9.03125 C 18.160156 8.898438 17.28125 8.421875 16.449219 7.949219 C 15.628906 7.480469 14.878906 7.101562 14.800781 7.101562 C 14.71875 7.101562 13.878906 7.53125 12.949219 8.058594 Z M 14.699219 7.648438 C 14.699219 7.789062 14.75 7.898438 14.800781 7.898438 C 14.859375 7.898438 14.898438 7.789062 14.898438 7.648438 C 14.898438 7.320312 15.050781 7.328125 15.410156 7.691406 C 15.800781 8.089844 15.789062 8.300781 15.378906 8.320312 L 15.050781 8.328125 L 15.378906 8.371094 C 15.78125 8.421875 15.78125 8.53125 15.410156 8.910156 C 15.070312 9.25 14.898438 9.28125 14.898438 9 C 14.898438 8.890625 14.859375 8.800781 14.800781 8.800781 C 14.75 8.800781 14.699219 8.890625 14.699219 9 C 14.699219 9.269531 14.578125 9.25 14.210938 8.941406 C 13.851562 8.640625 13.808594 8.398438 14.101562 8.398438 C 14.238281 8.398438 14.300781 8.460938 14.28125 8.558594 C 14.261719 8.660156 14.308594 8.75 14.378906 8.769531 C 14.449219 8.800781 14.5 8.71875 14.5 8.558594 C 14.5 8.339844 14.460938 8.300781 14.199219 8.300781 C 13.808594 8.300781 13.808594 8.078125 14.191406 7.691406 C 14.550781 7.328125 14.699219 7.320312 14.699219 7.648438 Z M 13.601562 8.550781 C 13.601562 8.898438 13.601562 8.898438 13.160156 8.898438 C 12.921875 8.898438 12.640625 8.929688 12.558594 8.960938 C 12.308594 9.058594 12.480469 8.710938 12.738281 8.589844 C 12.851562 8.53125 13.058594 8.429688 13.199219 8.351562 C 13.558594 8.140625 13.601562 8.160156 13.601562 8.550781 Z M 16.921875 8.679688 C 17.179688 8.898438 17.078125 8.949219 16.511719 8.921875 C 16.03125 8.878906 16 8.859375 16 8.609375 C 16 8.460938 16.03125 8.308594 16.058594 8.269531 C 16.128906 8.199219 16.660156 8.449219 16.921875 8.679688 Z M 16.921875 8.679688 "/>
<path style=" stroke:none;fill-rule:nonzero;fill:rgb(0%,0%,0%);fill-opacity:1;" d="M 14.699219 8.300781 C 14.699219 8.460938 14.75 8.601562 14.800781 8.601562 C 14.859375 8.601562 14.898438 8.460938 14.898438 8.300781 C 14.898438 8.128906 14.859375 8 14.800781 8 C 14.75 8 14.699219 8.128906 14.699219 8.300781 Z M 14.699219 8.300781 "/>
<path style=" stroke:none;fill-rule:nonzero;fill:rgb(0%,0%,0%);fill-opacity:1;" d="M 13.5 9.820312 C 13.5 9.871094 13.558594 9.898438 13.628906 9.898438 C 13.820312 9.898438 14.46875 10.5 14.628906 10.828125 L 14.769531 11.101562 L 15.039062 10.699219 C 15.179688 10.480469 15.480469 10.179688 15.699219 10.039062 C 15.921875 9.890625 16.101562 9.769531 16.101562 9.761719 C 16.101562 9.761719 15.519531 9.75 14.800781 9.75 C 14.089844 9.75 13.5 9.78125 13.5 9.820312 Z M 13.5 9.820312 "/>
<path style=" stroke:none;fill-rule:nonzero;fill:rgb(0%,0%,0%);fill-opacity:1;" d="M 12.519531 10.589844 C 12.558594 11.371094 12.859375 11.921875 13.421875 12.238281 C 13.601562 12.339844 13.859375 12.519531 13.988281 12.640625 L 14.230469 12.851562 L 14.160156 12.449219 C 14.121094 12.230469 14 11.851562 13.890625 11.601562 C 13.671875 11.109375 13.121094 10.480469 12.980469 10.558594 C 12.890625 10.621094 13.210938 11.300781 13.539062 11.75 C 13.910156 12.25 13.949219 12.359375 13.660156 12.101562 C 13.21875 11.710938 12.761719 10.730469 12.898438 10.5 C 13.089844 10.191406 14.210938 11.210938 14.390625 11.871094 C 14.511719 12.300781 14.53125 13.238281 14.441406 13.929688 L 14.378906 14.378906 L 13.960938 14.171875 C 13.621094 13.980469 13.371094 13.949219 12.449219 13.941406 C 11.851562 13.929688 11.269531 13.921875 11.171875 13.921875 C 11.078125 13.910156 10.859375 13.671875 10.691406 13.390625 C 10.320312 12.808594 10.191406 12.800781 10.488281 13.378906 C 10.640625 13.679688 10.660156 13.800781 10.570312 13.828125 C 10.511719 13.851562 10.679688 13.949219 10.96875 14.058594 L 11.488281 14.238281 L 10.828125 14.609375 C 10.191406 14.96875 10.171875 14.96875 9.988281 14.789062 C 9.679688 14.480469 9.25 14.550781 8.78125 14.988281 L 8.359375 15.378906 L 8.78125 15.589844 C 9.21875 15.808594 9.648438 15.859375 9.898438 15.699219 C 10 15.640625 10.101562 15.660156 10.21875 15.761719 C 10.308594 15.851562 10.441406 15.890625 10.511719 15.839844 C 10.589844 15.800781 10.609375 15.808594 10.558594 15.878906 C 10.480469 16.011719 10.601562 16.03125 10.839844 15.941406 C 10.929688 15.910156 11 15.808594 11 15.730469 C 11 15.648438 10.960938 15.621094 10.898438 15.648438 C 10.839844 15.691406 10.828125 15.640625 10.871094 15.539062 C 10.929688 15.390625 10.859375 15.378906 10.25 15.441406 C 9.878906 15.46875 9.539062 15.519531 9.5 15.550781 C 9.460938 15.570312 9.300781 15.550781 9.140625 15.5 C 8.859375 15.421875 8.859375 15.421875 9.101562 15.410156 C 9.238281 15.398438 9.480469 15.328125 9.640625 15.25 C 9.789062 15.171875 10.03125 15.101562 10.160156 15.101562 C 10.289062 15.101562 10.738281 14.910156 11.171875 14.679688 C 11.851562 14.320312 12.03125 14.269531 12.601562 14.269531 C 13.269531 14.261719 13.710938 14.421875 14.011719 14.761719 C 14.210938 15 14.398438 15.550781 14.398438 15.910156 C 14.398438 16.179688 14.398438 16.179688 14.089844 16.03125 C 13.820312 15.898438 13.660156 15.890625 12.960938 15.988281 C 12.519531 16.050781 11.921875 16.070312 11.648438 16.039062 C 11.308594 16 11.03125 16.03125 10.789062 16.128906 C 10.558594 16.21875 10.371094 16.25 10.289062 16.191406 C 10.210938 16.140625 9.988281 16.101562 9.78125 16.101562 C 9.46875 16.101562 9.359375 16.171875 9.011719 16.570312 C 8.78125 16.820312 8.609375 17.078125 8.628906 17.140625 C 8.648438 17.199219 8.910156 17.289062 9.21875 17.339844 C 9.851562 17.441406 10.210938 17.320312 10.53125 16.878906 C 10.808594 16.5 10.660156 16.398438 10.308594 16.738281 C 10.160156 16.890625 9.859375 17.050781 9.660156 17.109375 C 9.269531 17.21875 9.019531 17.160156 9.359375 17.039062 C 9.460938 17 9.78125 16.820312 10.050781 16.640625 C 10.609375 16.261719 10.601562 16.261719 12.808594 16.320312 C 13.808594 16.351562 14.011719 16.378906 14.199219 16.550781 C 14.410156 16.730469 14.421875 16.808594 14.359375 17.5 C 14.320312 17.910156 14.238281 18.519531 14.171875 18.851562 L 14.039062 19.449219 L 13.171875 19.480469 C 12.691406 19.488281 12.300781 19.46875 12.300781 19.421875 C 12.300781 19.371094 11.898438 19.328125 11.398438 19.328125 C 10.910156 19.328125 10.5 19.371094 10.5 19.421875 C 10.5 19.460938 10.371094 19.5 10.199219 19.5 C 9.929688 19.5 9.898438 19.53125 9.898438 19.800781 L 9.898438 20.101562 L 19.699219 20.101562 L 19.699219 19.800781 C 19.699219 19.53125 19.671875 19.5 19.398438 19.5 C 19.238281 19.5 19.101562 19.460938 19.101562 19.398438 C 19.101562 19.351562 18.710938 19.320312 18.199219 19.320312 C 17.710938 19.328125 17.300781 19.378906 17.300781 19.421875 C 17.300781 19.46875 16.910156 19.488281 16.429688 19.480469 L 15.550781 19.449219 L 15.429688 18.851562 C 15.359375 18.519531 15.28125 17.890625 15.238281 17.449219 C 15.148438 16.398438 15.210938 16.339844 16.390625 16.371094 C 16.859375 16.378906 17.460938 16.351562 17.71875 16.289062 C 18.269531 16.160156 19.210938 16.320312 19.421875 16.570312 C 19.488281 16.660156 19.738281 16.820312 19.980469 16.921875 C 20.21875 17.03125 20.390625 17.140625 20.371094 17.171875 C 20.261719 17.269531 19.550781 16.988281 19.289062 16.738281 C 18.960938 16.421875 18.800781 16.480469 19 16.851562 C 19.199219 17.21875 19.730469 17.429688 20.289062 17.351562 C 21 17.25 21.070312 17.179688 20.808594 16.808594 C 20.460938 16.320312 20.109375 16.101562 19.691406 16.101562 C 19.480469 16.101562 19.289062 16.140625 19.25 16.191406 C 19.21875 16.25 19.039062 16.21875 18.820312 16.128906 C 18.570312 16.019531 18.28125 15.988281 17.910156 16.03125 C 17.609375 16.058594 17.019531 16.039062 16.589844 15.980469 C 15.941406 15.890625 15.78125 15.898438 15.5 16.039062 L 15.171875 16.199219 L 15.230469 15.679688 C 15.351562 14.730469 15.921875 14.261719 16.988281 14.261719 C 17.570312 14.25 17.730469 14.300781 18.300781 14.621094 C 18.660156 14.820312 19.128906 15.019531 19.339844 15.058594 C 19.558594 15.101562 19.851562 15.191406 19.988281 15.261719 C 20.128906 15.339844 20.359375 15.398438 20.5 15.410156 L 20.75 15.410156 L 20.519531 15.511719 C 20.371094 15.570312 20.128906 15.558594 19.859375 15.488281 C 19.628906 15.429688 19.261719 15.398438 19.039062 15.421875 C 18.730469 15.441406 18.640625 15.488281 18.621094 15.660156 C 18.570312 15.980469 19.050781 16.078125 19.339844 15.808594 C 19.488281 15.671875 19.601562 15.640625 19.699219 15.699219 C 19.949219 15.859375 20.378906 15.808594 20.820312 15.589844 L 21.238281 15.378906 L 20.820312 14.988281 C 20.359375 14.558594 20.050781 14.5 19.601562 14.761719 C 19.339844 14.921875 19.308594 14.921875 18.769531 14.589844 C 18.230469 14.269531 18.128906 14.101562 18.480469 14.101562 C 18.679688 14.089844 19.210938 13.808594 19.019531 13.800781 C 18.929688 13.800781 18.960938 13.679688 19.101562 13.371094 L 19.308594 12.949219 L 19.078125 13.21875 C 18.949219 13.371094 18.78125 13.589844 18.691406 13.71875 C 18.53125 13.941406 18.46875 13.949219 17.511719 13.921875 C 16.429688 13.890625 15.820312 14 15.378906 14.320312 L 15.101562 14.511719 L 15.101562 13.28125 C 15.101562 12.148438 15.121094 11.988281 15.359375 11.519531 C 15.53125 11.171875 15.761719 10.921875 16.070312 10.710938 C 16.640625 10.328125 16.699219 10.328125 16.699219 10.679688 C 16.699219 11.03125 16.140625 11.980469 15.800781 12.191406 C 15.609375 12.320312 15.648438 12.230469 15.980469 11.789062 C 16.378906 11.25 16.679688 10.640625 16.570312 10.539062 C 16.550781 10.511719 16.339844 10.699219 16.109375 10.960938 C 15.71875 11.398438 15.398438 12.160156 15.398438 12.640625 C 15.398438 12.828125 15.398438 12.828125 15.628906 12.628906 C 15.75 12.519531 16.039062 12.308594 16.261719 12.171875 C 16.800781 11.828125 17.101562 11.230469 17.101562 10.46875 C 17.101562 10.160156 17.058594 9.898438 17 9.898438 C 16.738281 9.898438 15.808594 10.410156 15.53125 10.710938 C 15.171875 11.089844 14.898438 11.671875 14.898438 12.050781 C 14.898438 12.191406 14.859375 12.300781 14.800781 12.300781 C 14.75 12.300781 14.699219 12.179688 14.699219 12.019531 C 14.691406 11.601562 14.371094 10.980469 13.949219 10.609375 C 13.601562 10.308594 12.820312 9.898438 12.578125 9.898438 C 12.519531 9.898438 12.488281 10.160156 12.519531 10.589844 Z M 15.03125 14.621094 C 15.140625 14.78125 14.949219 15.398438 14.800781 15.398438 C 14.75 15.398438 14.660156 15.238281 14.601562 15.050781 C 14.421875 14.511719 14.761719 14.179688 15.03125 14.621094 Z M 14.949219 16.199219 C 14.980469 16.261719 14.980469 16.398438 14.949219 16.511719 C 14.890625 16.699219 14.859375 16.710938 14.730469 16.570312 C 14.640625 16.480469 14.601562 16.339844 14.628906 16.261719 C 14.699219 16.078125 14.859375 16.050781 14.949219 16.199219 Z M 9.769531 16.609375 C 9.550781 16.71875 9.359375 16.789062 9.328125 16.769531 C 9.269531 16.699219 9.808594 16.410156 10 16.410156 C 10.078125 16.410156 9.980469 16.5 9.769531 16.609375 Z M 14.949219 18.429688 C 14.988281 18.710938 15.089844 19.101562 15.160156 19.289062 C 15.238281 19.480469 15.28125 19.648438 15.25 19.679688 C 15.179688 19.75 14.410156 19.738281 14.339844 19.671875 C 14.308594 19.640625 14.328125 19.53125 14.378906 19.429688 C 14.429688 19.328125 14.53125 18.929688 14.601562 18.53125 C 14.671875 18.128906 14.761719 17.828125 14.808594 17.851562 C 14.851562 17.878906 14.910156 18.140625 14.949219 18.429688 Z M 14.949219 18.429688 "/>
<path style=" stroke:none;fill-rule:nonzero;fill:rgb(0%,0%,0%);fill-opacity:1;" d="M 9.230469 10.820312 C 8.820312 11.019531 8.980469 11.101562 9.75 11.101562 C 10.429688 11.101562 10.5 11.078125 10.5 10.898438 C 10.5 10.71875 10.441406 10.699219 9.980469 10.710938 C 9.691406 10.710938 9.351562 10.761719 9.230469 10.820312 Z M 9.230469 10.820312 "/>
<path style=" stroke:none;fill-rule:nonzero;fill:rgb(0%,0%,0%);fill-opacity:1;" d="M 10.699219 10.898438 C 10.699219 11.078125 10.769531 11.101562 11.449219 11.101562 C 12.128906 11.101562 12.199219 11.078125 12.199219 10.898438 C 12.199219 10.71875 12.128906 10.699219 11.449219 10.699219 C 10.769531 10.699219 10.699219 10.71875 10.699219 10.898438 Z M 10.699219 10.898438 "/>
<path style=" stroke:none;fill-rule:nonzero;fill:rgb(0%,0%,0%);fill-opacity:1;" d="M 17.398438 10.898438 C 17.398438 11.078125 17.46875 11.101562 18.148438 11.101562 C 18.828125 11.101562 18.898438 11.078125 18.898438 10.898438 C 18.898438 10.71875 18.828125 10.699219 18.148438 10.699219 C 17.46875 10.699219 17.398438 10.71875 17.398438 10.898438 Z M 17.398438 10.898438 "/>
<path style=" stroke:none;fill-rule:nonzero;fill:rgb(0%,0%,0%);fill-opacity:1;" d="M 19.101562 10.898438 C 19.101562 11.078125 19.171875 11.101562 19.878906 11.101562 L 20.648438 11.089844 L 20.410156 10.898438 C 20.238281 10.75 20.03125 10.699219 19.640625 10.699219 C 19.171875 10.699219 19.101562 10.71875 19.101562 10.898438 Z M 19.101562 10.898438 "/>
<path style=" stroke:none;fill-rule:nonzero;fill:rgb(0%,0%,0%);fill-opacity:1;" d="M 3.171875 10.980469 C 2.929688 11.238281 2.960938 11.46875 3.25 11.660156 C 3.480469 11.808594 3.519531 11.808594 3.75 11.660156 C 4.019531 11.480469 4.078125 11.121094 3.878906 10.921875 C 3.699219 10.738281 3.351562 10.769531 3.171875 10.980469 Z M 3.171875 10.980469 "/>
<path style=" stroke:none;fill-rule:nonzero;fill:rgb(0%,0%,0%);fill-opacity:1;" d="M 25.660156 10.960938 C 25.429688 11.191406 25.460938 11.46875 25.75 11.660156 C 25.980469 11.808594 26.019531 11.808594 26.25 11.660156 C 26.519531 11.480469 26.578125 11.121094 26.378906 10.921875 C 26.210938 10.75 25.839844 10.769531 25.660156 10.960938 Z M 25.660156 10.960938 "/>
<path style=" stroke:none;fill-rule:nonzero;fill:rgb(0%,0%,0%);fill-opacity:1;" d="M 9.21875 12.019531 L 9.238281 12.75 L 9.269531 12.121094 L 9.308594 11.5 L 10.191406 11.5 L 10.230469 12.070312 L 10.261719 12.648438 L 10.28125 11.96875 L 10.300781 11.300781 L 9.199219 11.300781 Z M 9.21875 12.019531 "/>
<path style=" stroke:none;fill-rule:nonzero;fill:rgb(0%,0%,0%);fill-opacity:1;" d="M 10.898438 11.699219 C 10.898438 11.921875 10.941406 12.101562 11 12.101562 C 11.050781 12.101562 11.070312 11.96875 11.039062 11.800781 C 10.980469 11.511719 10.980469 11.5 11.390625 11.5 L 11.800781 11.5 L 11.800781 11.949219 C 11.800781 12.199219 11.851562 12.398438 11.898438 12.398438 C 11.960938 12.398438 12 12.148438 12 11.851562 L 12 11.300781 L 10.898438 11.300781 Z M 10.898438 11.699219 "/>
<path style=" stroke:none;fill-rule:nonzero;fill:rgb(0%,0%,0%);fill-opacity:1;" d="M 17.71875 11.871094 C 17.738281 12.441406 17.738281 12.441406 17.769531 11.96875 L 17.808594 11.5 L 18.210938 11.5 C 18.578125 11.5 18.601562 11.519531 18.601562 11.800781 C 18.601562 11.960938 18.648438 12.101562 18.710938 12.101562 C 18.769531 12.101562 18.800781 11.941406 18.78125 11.71875 L 18.75 11.351562 L 18.230469 11.320312 L 17.699219 11.289062 Z M 17.71875 11.871094 "/>
<path style=" stroke:none;fill-rule:nonzero;fill:rgb(0%,0%,0%);fill-opacity:1;" d="M 19.320312 11.96875 L 19.339844 12.648438 L 19.371094 12.070312 L 19.410156 11.5 L 20.289062 11.5 L 20.328125 12.121094 L 20.359375 12.75 L 20.378906 12.019531 L 20.398438 11.300781 L 19.300781 11.300781 Z M 19.320312 11.96875 "/>
<path style=" stroke:none;fill-rule:nonzero;fill:rgb(0%,0%,0%);fill-opacity:1;" d="M 9.398438 12.148438 C 9.398438 12.449219 9.449219 12.699219 9.5 12.699219 C 9.558594 12.699219 9.601562 12.449219 9.601562 12.148438 C 9.601562 11.851562 9.558594 11.601562 9.5 11.601562 C 9.449219 11.601562 9.398438 11.851562 9.398438 12.148438 Z M 9.398438 12.148438 "/>
<path style=" stroke:none;fill-rule:nonzero;fill:rgb(0%,0%,0%);fill-opacity:1;" d="M 9.699219 12.148438 C 9.699219 12.46875 9.730469 12.699219 9.769531 12.660156 C 9.839844 12.589844 9.820312 11.679688 9.738281 11.609375 C 9.71875 11.589844 9.699219 11.828125 9.699219 12.148438 Z M 9.699219 12.148438 "/>
<path style=" stroke:none;fill-rule:nonzero;fill:rgb(0%,0%,0%);fill-opacity:1;" d="M 10.03125 12.148438 C 10.03125 12.480469 10.050781 12.601562 10.070312 12.421875 C 10.089844 12.238281 10.089844 11.96875 10.070312 11.820312 C 10.050781 11.671875 10.03125 11.820312 10.03125 12.148438 Z M 10.03125 12.148438 "/>
<path style=" stroke:none;fill-rule:nonzero;fill:rgb(0%,0%,0%);fill-opacity:1;" d="M 11.199219 11.898438 C 11.199219 12.058594 11.25 12.199219 11.300781 12.199219 C 11.359375 12.199219 11.398438 12.058594 11.398438 11.898438 C 11.398438 11.730469 11.359375 11.601562 11.300781 11.601562 C 11.25 11.601562 11.199219 11.730469 11.199219 11.898438 Z M 11.199219 11.898438 "/>
<path style=" stroke:none;fill-rule:nonzero;fill:rgb(0%,0%,0%);fill-opacity:1;" d="M 11.5 11.949219 C 11.5 12.140625 11.550781 12.300781 11.601562 12.300781 C 11.660156 12.300781 11.699219 12.140625 11.699219 11.949219 C 11.699219 11.761719 11.660156 11.601562 11.601562 11.601562 C 11.550781 11.601562 11.5 11.761719 11.5 11.949219 Z M 11.5 11.949219 "/>
<path style=" stroke:none;fill-rule:nonzero;fill:rgb(0%,0%,0%);fill-opacity:1;" d="M 17.898438 11.949219 C 17.898438 12.140625 17.949219 12.300781 18 12.300781 C 18.058594 12.300781 18.101562 12.140625 18.101562 11.949219 C 18.101562 11.761719 18.058594 11.601562 18 11.601562 C 17.949219 11.601562 17.898438 11.761719 17.898438 11.949219 Z M 17.898438 11.949219 "/>
<path style=" stroke:none;fill-rule:nonzero;fill:rgb(0%,0%,0%);fill-opacity:1;" d="M 19.53125 12.148438 C 19.53125 12.480469 19.550781 12.601562 19.570312 12.421875 C 19.589844 12.238281 19.589844 11.96875 19.570312 11.820312 C 19.550781 11.671875 19.53125 11.820312 19.53125 12.148438 Z M 19.53125 12.148438 "/>
<path style=" stroke:none;fill-rule:nonzero;fill:rgb(0%,0%,0%);fill-opacity:1;" d="M 19.699219 12.148438 C 19.699219 12.449219 19.75 12.699219 19.800781 12.699219 C 19.859375 12.699219 19.898438 12.449219 19.898438 12.148438 C 19.898438 11.851562 19.859375 11.601562 19.800781 11.601562 C 19.75 11.601562 19.699219 11.851562 19.699219 12.148438 Z M 19.699219 12.148438 "/>
<path style=" stroke:none;fill-rule:nonzero;fill:rgb(0%,0%,0%);fill-opacity:1;" d="M 20.03125 12.148438 C 20.03125 12.480469 20.050781 12.601562 20.070312 12.421875 C 20.089844 12.238281 20.089844 11.96875 20.070312 11.820312 C 20.050781 11.671875 20.03125 11.820312 20.03125 12.148438 Z M 20.03125 12.148438 "/>
<path style=" stroke:none;fill-rule:nonzero;fill:rgb(0%,0%,0%);fill-opacity:1;" d="M 3.011719 12.039062 C 2.96875 12.101562 2.898438 12.519531 2.859375 12.980469 C 2.820312 13.441406 2.769531 14.011719 2.730469 14.261719 C 2.679688 14.660156 2.691406 14.699219 2.890625 14.699219 C 3.089844 14.699219 3.101562 14.75 3.101562 15.640625 C 3.101562 16.53125 3.191406 16.859375 3.359375 16.589844 C 3.398438 16.53125 3.421875 16.078125 3.410156 15.589844 C 3.390625 14.75 3.398438 14.699219 3.589844 14.699219 C 3.710938 14.699219 3.800781 14.769531 3.800781 14.839844 C 3.800781 14.921875 3.910156 15.351562 4.050781 15.789062 C 4.230469 16.359375 4.359375 16.601562 4.46875 16.601562 C 4.660156 16.601562 4.609375 16.160156 4.320312 15.269531 L 4.128906 14.699219 L 4.410156 14.699219 C 4.570312 14.699219 4.699219 14.660156 4.699219 14.609375 C 4.699219 14.558594 4.539062 14.078125 4.351562 13.550781 C 4.148438 13.011719 4.011719 12.558594 4.03125 12.539062 C 4.050781 12.519531 4.21875 12.660156 4.398438 12.851562 C 4.710938 13.171875 4.789062 13.199219 5.328125 13.199219 C 5.828125 13.199219 5.910156 13.179688 5.878906 13.019531 C 5.851562 12.890625 5.761719 12.859375 5.460938 12.878906 C 5.109375 12.921875 5.019531 12.871094 4.558594 12.421875 C 4.089844 11.949219 4.019531 11.910156 3.570312 11.921875 C 3.308594 11.929688 3.058594 11.980469 3.011719 12.039062 Z M 3.828125 12.691406 C 3.800781 12.941406 3.851562 13.269531 3.96875 13.609375 C 4.230469 14.339844 4.191406 14.46875 3.679688 14.441406 C 3.25 14.421875 3.078125 14.261719 3.140625 13.941406 C 3.160156 13.839844 3.210938 13.460938 3.25 13.101562 C 3.339844 12.320312 3.351562 12.300781 3.648438 12.300781 C 3.859375 12.300781 3.878906 12.328125 3.828125 12.691406 Z M 3.828125 12.691406 "/>
<path style=" stroke:none;fill-rule:nonzero;fill:rgb(0%,0%,0%);fill-opacity:1;" d="M 24.949219 12.421875 C 24.53125 12.871094 24.449219 12.921875 24.160156 12.871094 C 23.980469 12.839844 23.769531 12.851562 23.699219 12.898438 C 23.441406 13.058594 23.730469 13.199219 24.300781 13.199219 C 24.859375 13.199219 24.898438 13.179688 25.160156 12.851562 C 25.308594 12.648438 25.449219 12.519531 25.46875 12.539062 C 25.5 12.570312 25.359375 13.039062 25.160156 13.601562 C 24.960938 14.160156 24.800781 14.628906 24.800781 14.660156 C 24.800781 14.679688 24.929688 14.699219 25.089844 14.699219 L 25.378906 14.699219 L 25.140625 15.46875 C 24.859375 16.390625 24.839844 16.628906 25.058594 16.578125 C 25.210938 16.550781 25.699219 15.269531 25.699219 14.871094 C 25.699219 14.769531 25.78125 14.699219 25.898438 14.699219 C 26.078125 14.699219 26.101562 14.78125 26.121094 15.648438 C 26.160156 16.921875 26.339844 16.941406 26.378906 15.671875 C 26.410156 14.738281 26.421875 14.699219 26.628906 14.699219 L 26.851562 14.699219 L 26.699219 13.320312 L 26.550781 11.949219 L 25.988281 11.929688 C 25.429688 11.910156 25.421875 11.910156 24.949219 12.421875 Z M 26.21875 12.648438 C 26.261719 12.808594 26.308594 13.28125 26.328125 13.691406 L 26.351562 14.429688 L 25.878906 14.449219 C 25.320312 14.480469 25.289062 14.398438 25.558594 13.550781 C 25.648438 13.269531 25.710938 12.878906 25.710938 12.671875 C 25.699219 12.328125 25.730469 12.289062 25.921875 12.320312 C 26.058594 12.339844 26.160156 12.449219 26.21875 12.648438 Z M 26.21875 12.648438 "/>
<path style=" stroke:none;fill-rule:nonzero;fill:rgb(0%,0%,0%);fill-opacity:1;" d="M 10.898438 12.839844 C 10.898438 13.390625 11.171875 13.699219 11.648438 13.699219 C 11.980469 13.699219 12 13.679688 12 13.371094 C 12 12.988281 11.730469 12.691406 11.230469 12.519531 L 10.898438 12.410156 Z M 10.898438 12.839844 "/>
<path style=" stroke:none;fill-rule:nonzero;fill:rgb(0%,0%,0%);fill-opacity:1;" d="M 12.769531 12.769531 C 12.839844 13.300781 13.109375 13.628906 13.511719 13.71875 C 14.351562 13.890625 14.070312 12.898438 13.171875 12.519531 C 12.75 12.339844 12.710938 12.371094 12.769531 12.769531 Z M 12.769531 12.769531 "/>
<path style=" stroke:none;fill-rule:nonzero;fill:rgb(0%,0%,0%);fill-opacity:1;" d="M 16.410156 12.539062 C 15.558594 12.851562 15.269531 13.878906 16.089844 13.71875 C 16.488281 13.628906 16.761719 13.300781 16.851562 12.769531 C 16.921875 12.359375 16.898438 12.359375 16.410156 12.539062 Z M 16.441406 13.410156 C 16.351562 13.511719 16.210938 13.601562 16.140625 13.601562 C 16.070312 13.601562 16.128906 13.480469 16.28125 13.320312 C 16.578125 13.019531 16.730469 13.101562 16.441406 13.410156 Z M 16.441406 13.410156 "/>
<path style=" stroke:none;fill-rule:nonzero;fill:rgb(0%,0%,0%);fill-opacity:1;" d="M 18.351562 12.53125 C 17.878906 12.679688 17.601562 12.988281 17.601562 13.371094 C 17.601562 13.679688 17.621094 13.699219 17.929688 13.699219 C 18.421875 13.699219 18.71875 13.339844 18.679688 12.828125 C 18.648438 12.441406 18.648438 12.429688 18.351562 12.53125 Z M 18.339844 13.410156 C 18.25 13.511719 18.109375 13.601562 18.039062 13.601562 C 17.96875 13.601562 18.03125 13.480469 18.179688 13.320312 C 18.480469 13.019531 18.628906 13.101562 18.339844 13.410156 Z M 18.339844 13.410156 "/>
<path style=" stroke:none;fill-rule:nonzero;fill:rgb(0%,0%,0%);fill-opacity:1;" d="M 12.300781 13.121094 C 12.460938 13.410156 12.640625 13.660156 12.691406 13.679688 C 12.851562 13.730469 12.601562 13.078125 12.371094 12.820312 C 12.019531 12.441406 11.980469 12.578125 12.300781 13.121094 Z M 12.300781 13.121094 "/>
<path style=" stroke:none;fill-rule:nonzero;fill:rgb(0%,0%,0%);fill-opacity:1;" d="M 17.238281 12.820312 C 17.03125 13.058594 16.769531 13.601562 16.828125 13.660156 C 16.878906 13.71875 17.128906 13.421875 17.390625 12.96875 C 17.640625 12.558594 17.550781 12.46875 17.238281 12.820312 Z M 17.238281 12.820312 "/>
<path style=" stroke:none;fill-rule:nonzero;fill:rgb(0%,0%,0%);fill-opacity:1;" d="M 9.199219 13.070312 C 9.121094 13.101562 8.941406 13.171875 8.808594 13.21875 L 8.570312 13.308594 L 8.851562 13.601562 C 9.210938 13.96875 9.398438 14.03125 9.761719 13.890625 L 10.050781 13.78125 L 9.648438 13.589844 C 9.390625 13.46875 9.320312 13.398438 9.449219 13.398438 C 9.558594 13.398438 9.800781 13.488281 9.980469 13.601562 C 10.371094 13.839844 10.398438 13.839844 10.398438 13.648438 C 10.398438 13.21875 9.699219 12.878906 9.199219 13.070312 Z M 9.199219 13.070312 "/>
<path style=" stroke:none;fill-rule:nonzero;fill:rgb(0%,0%,0%);fill-opacity:1;" d="M 19.460938 13.210938 C 19.320312 13.320312 19.199219 13.5 19.199219 13.609375 C 19.199219 13.851562 19.21875 13.851562 19.621094 13.601562 C 19.800781 13.488281 20.039062 13.398438 20.148438 13.410156 C 20.269531 13.410156 20.171875 13.480469 19.910156 13.589844 L 19.46875 13.769531 L 19.789062 13.878906 C 20.171875 14.011719 20.460938 13.921875 20.78125 13.570312 L 21.011719 13.328125 L 20.601562 13.160156 C 20.058594 12.949219 19.78125 12.960938 19.460938 13.210938 Z M 19.460938 13.210938 "/>
<path style=" stroke:none;fill-rule:nonzero;fill:rgb(0%,0%,0%);fill-opacity:1;" d="M 5.480469 14.011719 C 5.269531 14.128906 5.238281 14.601562 5.421875 14.78125 C 5.601562 14.960938 5.949219 14.921875 6.160156 14.691406 C 6.328125 14.5 6.328125 14.460938 6.191406 14.21875 C 6.03125 13.929688 5.75 13.839844 5.480469 14.011719 Z M 5.480469 14.011719 "/>
<path style=" stroke:none;fill-rule:nonzero;fill:rgb(0%,0%,0%);fill-opacity:1;" d="M 23.449219 14.101562 C 23.210938 14.359375 23.351562 14.828125 23.671875 14.878906 C 24.199219 14.960938 24.511719 14.421875 24.140625 14.058594 C 23.929688 13.839844 23.671875 13.859375 23.449219 14.101562 Z M 23.449219 14.101562 "/>
<path style=" stroke:none;fill-rule:nonzero;fill:rgb(0%,0%,0%);fill-opacity:1;" d="M 9.820312 14.089844 C 9.710938 14.148438 9.75 14.21875 9.960938 14.390625 C 10.28125 14.640625 10.378906 14.648438 10.691406 14.441406 L 10.921875 14.269531 L 10.601562 14.140625 C 10.230469 13.980469 10.011719 13.96875 9.820312 14.089844 Z M 9.820312 14.089844 "/>
<path style=" stroke:none;fill-rule:nonzero;fill:rgb(0%,0%,0%);fill-opacity:1;" d="M 18.929688 14.140625 C 18.761719 14.238281 18.730469 14.289062 18.820312 14.378906 C 18.988281 14.550781 19.421875 14.53125 19.691406 14.328125 C 19.921875 14.171875 19.921875 14.160156 19.738281 14.089844 C 19.46875 13.980469 19.179688 14 18.929688 14.140625 Z M 18.929688 14.140625 "/>
<path style=" stroke:none;fill-rule:nonzero;fill:rgb(0%,0%,0%);fill-opacity:1;" d="M 12.429688 14.769531 C 12.210938 14.808594 12.210938 14.828125 12.351562 15.109375 C 12.570312 15.519531 12.910156 15.710938 13.378906 15.679688 C 13.761719 15.648438 13.789062 15.628906 13.730469 15.398438 C 13.699219 15.261719 13.601562 15.070312 13.511719 14.980469 C 13.339844 14.800781 12.789062 14.691406 12.429688 14.769531 Z M 13.398438 15.53125 C 13.488281 15.558594 13.441406 15.589844 13.289062 15.589844 C 13.140625 15.601562 12.921875 15.511719 12.789062 15.398438 L 12.550781 15.199219 L 12.898438 15.339844 C 13.089844 15.410156 13.320312 15.5 13.398438 15.53125 Z M 13.398438 15.53125 "/>
<path style=" stroke:none;fill-rule:nonzero;fill:rgb(0%,0%,0%);fill-opacity:1;" d="M 16.308594 14.878906 C 16.089844 14.988281 15.929688 15.148438 15.890625 15.320312 C 15.820312 15.578125 15.828125 15.601562 16.078125 15.539062 C 16.230469 15.5 16.511719 15.410156 16.699219 15.328125 C 17.011719 15.210938 17.03125 15.210938 16.898438 15.339844 C 16.820312 15.421875 16.589844 15.53125 16.398438 15.578125 L 16.050781 15.679688 L 16.351562 15.691406 C 16.71875 15.699219 17.050781 15.488281 17.25 15.109375 C 17.390625 14.828125 17.390625 14.820312 17.078125 14.761719 C 16.671875 14.679688 16.699219 14.679688 16.308594 14.878906 Z M 16.308594 14.878906 "/>
<path style=" stroke:none;fill-rule:nonzero;fill:rgb(0%,0%,0%);fill-opacity:1;" d="M 11 15.070312 C 11 15.191406 11.390625 15.800781 11.46875 15.808594 C 11.519531 15.820312 11.710938 15.839844 11.910156 15.851562 C 12.238281 15.871094 12.261719 15.851562 12.21875 15.609375 C 12.140625 15.179688 11.910156 15 11.429688 15 C 11.199219 15 11 15.03125 11 15.070312 Z M 11 15.070312 "/>
<path style=" stroke:none;fill-rule:nonzero;fill:rgb(0%,0%,0%);fill-opacity:1;" d="M 17.558594 15.21875 C 17.328125 15.550781 17.359375 15.789062 17.640625 15.859375 C 17.960938 15.941406 18.261719 15.761719 18.449219 15.398438 C 18.53125 15.238281 18.601562 15.089844 18.601562 15.050781 C 18.601562 15.019531 18.398438 15 18.160156 15 C 17.808594 15 17.679688 15.050781 17.558594 15.21875 Z M 17.558594 15.21875 "/>
<path style=" stroke:none;fill-rule:nonzero;fill:rgb(0%,0%,0%);fill-opacity:1;" d="M 5.070312 15.171875 C 4.960938 15.28125 4.988281 17.398438 5.101562 17.398438 C 5.160156 17.398438 5.199219 17.039062 5.199219 16.511719 C 5.199219 16.011719 5.238281 15.589844 5.289062 15.558594 C 5.398438 15.488281 5.5 16.078125 5.5 16.820312 C 5.5 17.289062 5.460938 17.421875 5.300781 17.519531 C 5.121094 17.628906 5.101562 17.761719 5.101562 18.609375 C 5.101562 19.328125 5.140625 19.609375 5.25 19.699219 C 5.519531 19.929688 5.601562 19.699219 5.601562 18.691406 C 5.601562 17.890625 5.628906 17.699219 5.75 17.699219 C 5.859375 17.699219 5.898438 17.898438 5.921875 18.71875 C 5.941406 19.558594 5.980469 19.75 6.101562 19.75 C 6.230469 19.75 6.261719 19.398438 6.339844 17.578125 C 6.390625 16.390625 6.398438 15.339844 6.371094 15.25 C 6.320312 15.140625 6.160156 15.101562 5.71875 15.101562 C 5.398438 15.101562 5.101562 15.128906 5.070312 15.171875 Z M 5.980469 15.980469 C 6 16.210938 5.96875 16.398438 5.921875 16.398438 C 5.871094 16.398438 5.828125 16.339844 5.828125 16.269531 C 5.820312 16.210938 5.789062 16 5.738281 15.808594 C 5.691406 15.539062 5.699219 15.480469 5.808594 15.519531 C 5.890625 15.550781 5.960938 15.738281 5.980469 15.980469 Z M 5.980469 15.980469 "/>
<path style=" stroke:none;fill-rule:nonzero;fill:rgb(0%,0%,0%);fill-opacity:1;" d="M 23.238281 15.25 C 23.199219 15.339844 23.210938 16.390625 23.261719 17.578125 C 23.339844 19.398438 23.371094 19.75 23.5 19.75 C 23.621094 19.75 23.660156 19.558594 23.679688 18.71875 C 23.699219 17.898438 23.738281 17.699219 23.851562 17.699219 C 23.96875 17.699219 24 17.890625 24 18.691406 C 24 19.699219 24.089844 19.960938 24.351562 19.691406 C 24.449219 19.578125 24.488281 19.011719 24.519531 17.351562 L 24.550781 15.148438 L 23.921875 15.121094 C 23.421875 15.101562 23.289062 15.121094 23.238281 15.25 Z M 24.011719 15.5 C 24.171875 15.589844 24.199219 15.71875 24.199219 16.351562 C 24.199219 17.25 24.148438 17.398438 23.839844 17.398438 C 23.601562 17.398438 23.601562 17.378906 23.601562 16.46875 C 23.601562 15.378906 23.628906 15.300781 24.011719 15.5 Z M 24.011719 15.5 "/>
<path style=" stroke:none;fill-rule:nonzero;fill:rgb(0%,0%,0%);fill-opacity:1;" d="M 11.230469 16.550781 C 11.121094 16.628906 10.96875 16.839844 10.910156 17.011719 L 10.800781 17.320312 L 11.230469 17.25 C 11.46875 17.210938 11.769531 17.070312 11.929688 16.910156 L 12.210938 16.648438 L 11.929688 16.53125 C 11.558594 16.371094 11.480469 16.371094 11.230469 16.550781 Z M 11.230469 16.550781 "/>
<path style=" stroke:none;fill-rule:nonzero;fill:rgb(0%,0%,0%);fill-opacity:1;" d="M 17.75 16.5 C 17.679688 16.609375 17.671875 16.609375 17.980469 16.640625 C 18.101562 16.660156 18.261719 16.730469 18.328125 16.800781 C 18.429688 16.898438 18.410156 16.898438 18.230469 16.808594 C 17.890625 16.640625 17.820312 16.679688 18.101562 16.898438 C 18.238281 17.011719 18.300781 17.101562 18.230469 17.101562 C 18.171875 17.101562 17.980469 16.980469 17.808594 16.839844 C 17.449219 16.539062 17.390625 16.660156 17.730469 16.980469 C 17.851562 17.089844 18.140625 17.21875 18.378906 17.261719 L 18.800781 17.328125 L 18.691406 17.011719 C 18.519531 16.53125 17.929688 16.210938 17.75 16.5 Z M 17.75 16.5 "/>
<path style=" stroke:none;fill-rule:nonzero;fill:rgb(0%,0%,0%);fill-opacity:1;" d="M 13.410156 16.730469 C 12.78125 17.039062 12.558594 17.378906 12.5 18.148438 C 12.441406 18.878906 12.46875 18.898438 13.078125 18.648438 C 13.820312 18.328125 14.179688 17.78125 14.050781 17.128906 L 13.96875 16.75 L 13.851562 17.300781 C 13.761719 17.679688 13.628906 17.929688 13.410156 18.121094 C 13.019531 18.46875 12.769531 18.488281 13.140625 18.148438 C 13.289062 18.011719 13.480469 17.738281 13.558594 17.550781 C 13.738281 17.109375 13.738281 17.011719 13.539062 17.261719 C 13.398438 17.441406 13.398438 17.441406 13.511719 17.199219 C 13.578125 17.070312 13.691406 16.890625 13.769531 16.820312 C 13.878906 16.710938 13.949219 16.488281 13.878906 16.5 C 13.859375 16.511719 13.648438 16.609375 13.410156 16.730469 Z M 13.410156 16.730469 "/>
<path style=" stroke:none;fill-rule:nonzero;fill:rgb(0%,0%,0%);fill-opacity:1;" d="M 15.699219 16.578125 C 15.699219 16.621094 15.820312 16.828125 15.96875 17.050781 C 16.121094 17.269531 16.160156 17.390625 16.070312 17.308594 C 15.800781 17.089844 15.871094 17.339844 16.25 17.898438 C 16.539062 18.328125 16.558594 18.398438 16.378906 18.28125 C 16.019531 18.039062 15.800781 17.679688 15.71875 17.199219 L 15.640625 16.75 L 15.558594 17.070312 C 15.449219 17.550781 15.570312 17.929688 15.929688 18.269531 C 16.21875 18.550781 16.761719 18.800781 17.050781 18.800781 C 17.128906 18.800781 17.140625 18.621094 17.101562 18.171875 C 17.03125 17.5 16.929688 17.238281 16.628906 16.980469 C 16.410156 16.789062 15.699219 16.480469 15.699219 16.578125 Z M 15.699219 16.578125 "/>
<path style=" stroke:none;fill-rule:nonzero;fill:rgb(0%,0%,0%);fill-opacity:1;" d="M 2.828125 17.460938 C 2.671875 17.878906 3.230469 19.921875 3.800781 20.949219 C 4.859375 22.871094 5.460938 23.828125 5.78125 24.121094 C 6.808594 25.019531 9.398438 26.480469 10.960938 27.03125 L 11.671875 27.28125 L 12.519531 26.289062 L 13.378906 25.289062 L 12.929688 24.46875 C 12.199219 23.128906 11.679688 22.699219 10.140625 22.109375 C 9.511719 21.871094 9.148438 21.640625 8.441406 21.039062 C 7.949219 20.621094 7.398438 20.210938 7.21875 20.128906 C 6.921875 20.011719 6.851562 20.011719 6.640625 20.148438 C 6.160156 20.460938 6.390625 20.898438 7.609375 22.011719 C 8.109375 22.46875 8.679688 23.050781 8.859375 23.289062 L 9.199219 23.730469 L 9.199219 23.421875 C 9.199219 23.101562 8.820312 22.558594 8.300781 22.148438 C 7.488281 21.5 6.800781 20.671875 6.941406 20.53125 C 7.03125 20.441406 7.441406 20.648438 7.808594 20.988281 C 8.691406 21.769531 9.210938 22.128906 9.898438 22.398438 C 11.460938 23.03125 11.871094 23.351562 12.511719 24.449219 C 12.960938 25.230469 12.929688 25.308594 11.949219 26.371094 C 11.558594 26.800781 11.539062 26.800781 11.148438 26.691406 C 9.878906 26.351562 6.289062 24.269531 5.761719 23.570312 C 5.410156 23.109375 4.101562 20.769531 3.78125 20.050781 C 3.480469 19.351562 3.261719 18.429688 3.320312 18.148438 C 3.351562 18.011719 3.539062 18.300781 3.910156 19.050781 C 4.710938 20.648438 5.101562 21.191406 6.148438 22.261719 C 6.691406 22.808594 7.050781 23.070312 7.710938 23.390625 C 8.519531 23.78125 9 23.898438 9 23.71875 C 9 23.671875 8.570312 23.421875 8.050781 23.160156 C 7.53125 22.898438 6.871094 22.480469 6.578125 22.21875 C 5.820312 21.53125 4.949219 20.308594 4.320312 19.011719 C 3.738281 17.839844 3.339844 17.300781 3.058594 17.300781 C 2.96875 17.300781 2.871094 17.371094 2.828125 17.460938 Z M 2.828125 17.460938 "/>
<path style=" stroke:none;fill-rule:nonzero;fill:rgb(0%,0%,0%);fill-opacity:1;" d="M 11.78125 17.921875 L 11.761719 18.550781 L 11.730469 17.96875 C 11.710938 17.660156 11.648438 17.398438 11.601562 17.398438 C 11.539062 17.398438 11.488281 17.660156 11.480469 17.96875 L 11.460938 18.550781 L 11.429688 18.019531 C 11.378906 17.351562 11.199219 17.339844 11.199219 18.019531 C 11.199219 18.648438 11.03125 18.558594 10.96875 17.898438 C 10.941406 17.519531 10.929688 17.539062 10.921875 18.070312 L 10.898438 18.699219 L 12 18.699219 L 12 18 C 12 17.128906 11.808594 17.058594 11.78125 17.921875 Z M 11.78125 17.921875 "/>
<path style=" stroke:none;fill-rule:nonzero;fill:rgb(0%,0%,0%);fill-opacity:1;" d="M 17.679688 18 L 17.71875 18.710938 L 18.230469 18.679688 L 18.75 18.648438 L 18.78125 18.070312 C 18.800781 17.71875 18.769531 17.5 18.699219 17.5 C 18.648438 17.5 18.601562 17.699219 18.601562 17.949219 C 18.601562 18.21875 18.550781 18.398438 18.488281 18.398438 C 18.410156 18.398438 18.390625 18.25 18.421875 17.949219 C 18.449219 17.699219 18.441406 17.5 18.390625 17.5 C 18.339844 17.5 18.300781 17.699219 18.300781 17.941406 C 18.300781 18.191406 18.261719 18.421875 18.199219 18.449219 C 18.140625 18.488281 18.101562 18.300781 18.101562 17.960938 C 18.101562 17.25 17.921875 17.230469 17.871094 17.921875 L 17.839844 18.449219 L 17.820312 17.871094 C 17.808594 17.558594 17.769531 17.300781 17.730469 17.300781 C 17.679688 17.300781 17.671875 17.621094 17.679688 18 Z M 17.679688 18 "/>
<path style=" stroke:none;fill-rule:nonzero;fill:rgb(0%,0%,0%);fill-opacity:1;" d="M 26.171875 17.5 C 26.019531 17.621094 25.640625 18.261719 25.300781 18.949219 C 24.621094 20.339844 23.800781 21.519531 23.019531 22.21875 C 22.730469 22.46875 22.039062 22.921875 21.488281 23.199219 L 20.480469 23.71875 L 20.660156 23.398438 C 20.769531 23.21875 21.289062 22.671875 21.828125 22.160156 C 22.910156 21.160156 23.25 20.710938 23.148438 20.398438 C 22.96875 19.839844 22.359375 19.96875 21.488281 20.769531 C 20.589844 21.578125 20.25 21.800781 19.351562 22.148438 C 18.878906 22.339844 18.328125 22.589844 18.148438 22.699219 C 17.648438 23.011719 17.101562 23.671875 16.628906 24.539062 L 16.21875 25.300781 L 17.03125 26.261719 C 17.808594 27.171875 17.859375 27.210938 18.171875 27.148438 C 19.570312 26.890625 23.429688 24.710938 24.140625 23.78125 C 24.511719 23.28125 26.078125 20.429688 26.300781 19.828125 C 26.550781 19.148438 26.851562 17.660156 26.769531 17.460938 C 26.679688 17.238281 26.480469 17.261719 26.171875 17.5 Z M 26.148438 19.011719 C 25.988281 19.621094 25.46875 20.789062 24.96875 21.648438 C 24.851562 21.871094 24.578125 22.351562 24.371094 22.710938 C 23.929688 23.5 23.71875 23.730469 23 24.261719 C 21.359375 25.460938 18.519531 26.859375 18 26.71875 C 17.789062 26.671875 16.789062 25.441406 16.769531 25.21875 C 16.75 24.941406 17.390625 23.921875 17.871094 23.449219 C 18.328125 23 18.46875 22.921875 19.699219 22.410156 C 20.410156 22.121094 20.691406 21.929688 21.910156 20.921875 C 22.429688 20.488281 22.679688 20.429688 22.621094 20.75 C 22.578125 20.929688 22.320312 21.210938 21.339844 22.101562 C 20.601562 22.769531 20.378906 23.101562 20.421875 23.46875 C 20.46875 23.910156 20.890625 23.890625 21.878906 23.398438 C 23.308594 22.679688 24.539062 21.320312 25.5 19.398438 C 25.789062 18.820312 26.070312 18.289062 26.140625 18.210938 C 26.328125 17.96875 26.328125 18.300781 26.148438 19.011719 Z M 26.148438 19.011719 "/>
<path style=" stroke:none;fill-rule:nonzero;fill:rgb(0%,0%,0%);fill-opacity:1;" d="M 10.671875 18.960938 C 10.511719 19.121094 10.769531 19.199219 11.460938 19.199219 C 12.050781 19.199219 12.199219 19.171875 12.199219 19.050781 C 12.199219 18.929688 12.050781 18.898438 11.46875 18.898438 C 11.058594 18.898438 10.699219 18.929688 10.671875 18.960938 Z M 10.671875 18.960938 "/>
<path style=" stroke:none;fill-rule:nonzero;fill:rgb(0%,0%,0%);fill-opacity:1;" d="M 17.398438 19.050781 C 17.398438 19.179688 17.519531 19.199219 18.179688 19.179688 C 18.609375 19.160156 18.949219 19.109375 18.949219 19.050781 C 18.949219 18.988281 18.609375 18.941406 18.179688 18.921875 C 17.519531 18.898438 17.398438 18.921875 17.398438 19.050781 Z M 17.398438 19.050781 "/>
<path style=" stroke:none;fill-rule:nonzero;fill:rgb(0%,0%,0%);fill-opacity:1;" d="M 9.398438 20.621094 L 9.398438 20.898438 L 20.199219 20.898438 L 20.199219 20.351562 L 9.398438 20.351562 Z M 9.398438 20.621094 "/>
<path style=" stroke:none;fill-rule:nonzero;fill:rgb(0%,0%,0%);fill-opacity:1;" d="M 10.101562 21.179688 C 10.101562 21.199219 10.300781 21.300781 10.550781 21.410156 C 10.96875 21.589844 11.261719 21.609375 14.761719 21.628906 C 18.480469 21.660156 18.539062 21.648438 19.019531 21.429688 C 19.28125 21.308594 19.5 21.199219 19.5 21.179688 C 19.5 21.160156 17.378906 21.148438 14.800781 21.148438 C 12.210938 21.148438 10.101562 21.160156 10.101562 21.179688 Z M 10.101562 21.179688 "/>
<path style=" stroke:none;fill-rule:nonzero;fill:rgb(0%,0%,0%);fill-opacity:1;" d="M 11.699219 22.101562 C 11.929688 22.28125 12.121094 22.300781 14.78125 22.300781 C 17.121094 22.300781 17.660156 22.269531 17.898438 22.148438 C 18.070312 22.058594 18.199219 21.96875 18.199219 21.949219 C 18.199219 21.929688 16.679688 21.910156 14.828125 21.910156 C 11.460938 21.898438 11.449219 21.898438 11.699219 22.101562 Z M 11.699219 22.101562 "/>
<path style=" stroke:none;fill-rule:nonzero;fill:rgb(0%,0%,0%);fill-opacity:1;" d="M 12.5 22.679688 C 12.5 22.71875 12.589844 22.808594 12.699219 22.878906 C 13.011719 23.070312 16.539062 23.039062 16.921875 22.839844 C 17.070312 22.761719 17.199219 22.671875 17.199219 22.648438 C 17.199219 22.621094 16.140625 22.601562 14.851562 22.601562 C 13.558594 22.601562 12.5 22.628906 12.5 22.679688 Z M 12.5 22.679688 "/>
<path style=" stroke:none;fill-rule:nonzero;fill:rgb(0%,0%,0%);fill-opacity:1;" d="M 13.050781 23.398438 C 13.089844 23.460938 13.78125 23.5 14.800781 23.5 C 15.820312 23.5 16.511719 23.460938 16.550781 23.398438 C 16.589844 23.328125 15.980469 23.300781 14.800781 23.300781 C 13.621094 23.300781 13.011719 23.328125 13.050781 23.398438 Z M 13.050781 23.398438 "/>
<path style=" stroke:none;fill-rule:nonzero;fill:rgb(0%,0%,0%);fill-opacity:1;" d="M 13.351562 23.898438 C 13.390625 23.960938 13.980469 24 14.800781 24 C 15.621094 24 16.210938 23.960938 16.25 23.898438 C 16.289062 23.839844 15.78125 23.800781 14.800781 23.800781 C 13.820312 23.800781 13.308594 23.839844 13.351562 23.898438 Z M 13.351562 23.898438 "/>
<path style=" stroke:none;fill-rule:nonzero;fill:rgb(0%,0%,0%);fill-opacity:1;" d="M 13.949219 24.398438 C 14.230469 24.519531 15.519531 24.519531 15.699219 24.398438 C 15.800781 24.328125 15.511719 24.300781 14.800781 24.308594 C 14.121094 24.308594 13.820312 24.339844 13.949219 24.398438 Z M 13.949219 24.398438 "/>
<path style=" stroke:none;fill-rule:nonzero;fill:rgb(0%,0%,0%);fill-opacity:1;" d="M 13.800781 25.46875 C 13.800781 25.511719 13.460938 25.949219 13.050781 26.449219 C 12.640625 26.941406 12.300781 27.378906 12.300781 27.410156 C 12.300781 27.5 13.789062 27.820312 13.941406 27.769531 C 14.011719 27.738281 14.21875 27.351562 14.398438 26.890625 L 14.730469 26.070312 L 14.441406 25.828125 C 14.058594 25.519531 13.800781 25.371094 13.800781 25.46875 Z M 14.199219 26.300781 C 14.199219 26.570312 14.011719 26.648438 13.820312 26.46875 C 13.699219 26.339844 13.691406 26.28125 13.789062 26.160156 C 13.949219 25.96875 14.199219 26.058594 14.199219 26.300781 Z M 13.78125 27.03125 C 13.808594 27.261719 13.78125 27.300781 13.550781 27.300781 C 13.25 27.300781 13.121094 27.058594 13.300781 26.839844 C 13.488281 26.621094 13.75 26.710938 13.78125 27.03125 Z M 13.78125 27.03125 "/>
<path style=" stroke:none;fill-rule:nonzero;fill:rgb(0%,0%,0%);fill-opacity:1;" d="M 15.308594 25.710938 C 15.089844 25.878906 14.898438 26.058594 14.898438 26.101562 C 14.898438 26.351562 15.550781 27.800781 15.660156 27.800781 C 15.910156 27.800781 17.300781 27.46875 17.300781 27.410156 C 17.300781 27.378906 17.070312 27.078125 16.78125 26.75 C 16.5 26.421875 16.148438 25.980469 16 25.78125 L 15.730469 25.410156 Z M 15.789062 26.191406 C 15.871094 26.328125 15.859375 26.410156 15.75 26.5 C 15.578125 26.640625 15.398438 26.550781 15.398438 26.308594 C 15.398438 25.96875 15.640625 25.890625 15.789062 26.191406 Z M 16.289062 26.839844 C 16.449219 27.039062 16.320312 27.300781 16.050781 27.300781 C 15.921875 27.300781 15.789062 27.230469 15.761719 27.140625 C 15.691406 26.949219 15.859375 26.699219 16.050781 26.699219 C 16.121094 26.699219 16.230469 26.761719 16.289062 26.839844 Z M 16.289062 26.839844 "/>
</g>
</svg>
