<?xml version="1.0" standalone="no"?>
<!DOCTYPE svg PUBLIC "-//W3C//DTD SVG 20010904//EN"
 "http://www.w3.org/TR/2001/REC-SVG-20010904/DTD/svg10.dtd">
<svg version="1.0" xmlns="http://www.w3.org/2000/svg"
 width="300.000000pt" height="300.000000pt" viewBox="0 0 300.000000 300.000000"
 preserveAspectRatio="xMidYMid meet">
<metadata>
Created by potrace 1.10, written by Peter Selinger 2001-2011
</metadata>
<g transform="translate(0.000000,300.000000) scale(0.100000,-0.100000)"
fill="#000000" stroke="none">
<path d="M1408 2466 c-26 -7 -54 -18 -62 -25 -8 -7 -59 -23 -113 -37 -100 -24
-229 -80 -306 -132 -23 -16 -57 -34 -75 -41 -35 -15 -77 -58 -87 -92 -4 -11
-30 -50 -57 -87 -59 -78 -119 -197 -149 -297 -29 -98 -37 -302 -16 -407 64
-305 275 -556 575 -682 306 -128 661 -75 929 139 284 228 410 589 323 929 -25
98 -93 242 -153 322 -25 34 -53 76 -61 93 -18 34 -65 81 -81 81 -6 0 -40 19
-75 42 -91 59 -199 106 -293 129 -45 11 -104 31 -132 44 -66 31 -110 36 -167
21z m132 -71 c99 -51 119 -194 37 -272 -63 -61 -162 -61 -224 -1 -80 77 -64
211 31 269 38 23 115 25 156 4z m-286 -62 c-4 -10 -10 -42 -12 -71 -15 -200
203 -319 362 -198 69 52 107 180 74 251 -6 14 -9 27 -6 30 5 6 129 -34 142
-45 4 -5 -13 -47 -39 -94 -25 -47 -45 -94 -43 -103 5 -26 39 -28 57 -4 15 20
18 20 39 6 12 -9 22 -26 22 -39 0 -29 36 -82 73 -110 22 -16 43 -21 91 -21 53
0 68 4 99 28 20 15 37 35 37 43 0 24 21 12 39 -22 9 -16 27 -44 39 -62 13 -18
22 -39 19 -46 -3 -7 -39 -28 -81 -46 -75 -33 -90 -47 -80 -74 10 -27 31 -24
107 15 42 21 80 39 85 39 9 0 48 -128 41 -134 -2 -2 -44 -12 -94 -22 -81 -17
-90 -21 -93 -43 -6 -40 9 -43 102 -21 49 12 90 19 93 16 3 -3 8 -38 11 -77 4
-61 3 -71 -10 -67 -33 13 -166 31 -181 25 -18 -7 -23 -42 -8 -51 4 -3 48 -12
96 -21 49 -8 90 -17 92 -19 5 -4 -22 -125 -29 -132 -3 -2 -42 11 -86 30 -66
28 -84 32 -98 22 -19 -14 -16 -45 6 -57 8 -4 42 -17 75 -30 33 -12 64 -25 68
-29 5 -4 -3 -29 -17 -56 -44 -84 -37 -83 -111 -25 -71 56 -105 61 -105 16 0
-18 17 -36 70 -73 l71 -50 -45 -48 c-25 -27 -46 -52 -46 -56 -1 -22 -31 0 -80
58 -56 65 -78 76 -100 50 -15 -19 -8 -31 58 -99 28 -31 52 -58 52 -61 0 -4
-33 -28 -74 -55 -79 -51 -166 -91 -258 -116 -31 -9 -59 -22 -62 -30 -3 -8 -15
-15 -27 -15 -16 0 -19 4 -14 18 4 9 10 27 12 40 7 28 23 29 23 1 0 -12 4 -17
11 -13 7 4 9 21 5 47 -25 157 -206 201 -300 74 -15 -21 -21 -43 -21 -83 0 -30
-2 -54 -5 -54 -3 0 -41 12 -85 26 -94 31 -159 62 -237 115 -32 22 -66 39 -77
39 -18 0 -48 26 -40 34 2 3 16 7 31 11 24 6 26 5 21 -17 -4 -17 12 -5 61 45
57 58 65 71 56 88 -18 33 -43 22 -104 -47 l-59 -66 -53 53 c-30 29 -54 56 -54
60 0 3 32 28 70 54 73 50 85 75 49 98 -12 7 -32 -2 -85 -42 -78 -57 -74 -58
-120 31 l-24 48 32 13 c18 8 57 22 85 31 59 19 67 27 58 55 -10 31 -26 30
-110 -5 -44 -18 -83 -30 -86 -26 -3 4 -13 35 -21 69 -18 72 -26 65 94 84 77
12 94 23 82 54 -7 19 -48 19 -131 1 l-63 -14 0 74 c0 41 4 74 8 74 5 0 43 -9
86 -20 60 -16 81 -18 92 -9 27 22 13 55 -26 62 -134 25 -150 30 -146 46 3 9
10 34 15 56 21 79 13 79 160 -1 26 -14 47 -10 55 12 10 27 -5 41 -84 77 -44
21 -80 40 -80 43 0 3 21 37 46 76 l46 71 19 -29 c26 -40 75 -64 132 -64 152 0
221 173 111 276 l-33 32 26 17 c30 20 22 29 88 -95 41 -77 66 -93 88 -59 7 12
-3 38 -41 108 -40 73 -48 93 -36 98 28 11 129 42 138 42 4 1 5 -7 0 -16z m664
-81 l24 -18 -26 -17 c-14 -10 -33 -31 -41 -47 l-16 -31 -29 18 c-17 9 -30 21
-30 26 0 5 6 4 13 -2 11 -9 20 0 41 39 15 28 30 50 34 50 4 0 18 -9 30 -18z
m-938 -89 c42 -38 51 -97 21 -135 -49 -61 -142 -54 -176 13 -34 65 21 149 97
149 16 0 41 -12 58 -27z m1070 12 c34 -17 60 -62 60 -100 0 -43 -50 -85 -100
-85 -102 0 -141 136 -52 184 35 19 56 20 92 1z m110 -122 c0 -7 -4 -13 -9 -13
-5 0 -18 -3 -28 -6 -15 -6 -16 -4 -5 7 6 7 12 24 12 38 0 24 1 24 15 5 8 -10
15 -25 15 -31z m124 -217 c-3 -8 -18 -14 -34 -14 l-28 1 26 33 c25 31 27 32
34 14 4 -11 5 -26 2 -34z m-1619 20 c16 -16 10 -26 -17 -26 -18 0 -25 20 -11
33 9 10 13 9 28 -7z m-57 -198 c18 -18 14 -28 -12 -28 -19 0 -23 4 -19 20 6
23 14 25 31 8z m1744 -23 c4 -20 3 -23 -8 -14 -8 7 -29 9 -51 5 -28 -5 -34 -4
-23 3 8 6 22 11 31 11 9 0 20 7 23 16 8 21 22 10 28 -21z m3 -196 c-5 -40 -11
-45 -32 -27 -10 8 -27 19 -38 23 -17 8 -15 10 15 13 19 2 39 8 45 13 14 13 14
12 10 -22z m-1696 -5 c2 -2 -10 -4 -27 -4 -17 0 -34 -4 -37 -10 -10 -17 -25
-11 -25 9 0 17 5 18 43 14 23 -3 44 -7 46 -9z m34 -181 c-13 -2 -23 -11 -23
-19 0 -8 -4 -15 -10 -15 -31 -4 -40 -3 -40 4 0 4 0 11 0 16 0 9 35 18 75 18
16 0 15 -1 -2 -4z m1617 -19 c0 -6 -6 -17 -13 -23 -11 -8 -19 -5 -34 13 l-21
24 34 -1 c19 -1 34 -6 34 -13z m-1529 -180 c-12 -9 -26 -26 -31 -38 -6 -15 -9
-16 -9 -5 -1 9 -8 19 -16 23 -23 8 -18 23 10 28 14 3 25 1 25 -6 0 -5 8 -3 17
7 9 9 19 14 22 12 3 -3 -5 -13 -18 -21z m1438 0 c7 -6 -21 -34 -34 -34 -15 0
-47 35 -39 43 6 6 64 -2 73 -9z m-170 -161 l24 -16 -24 -20 c-23 -19 -23 -19
-30 6 -4 14 -10 30 -14 36 -10 17 18 13 44 -6z m-520 -97 c31 -28 44 -64 36
-103 l-6 -33 -99 0 -100 0 0 46 c0 57 28 100 73 112 40 11 66 5 96 -22z m-185
-123 c8 -21 -10 -41 -24 -27 -11 11 -3 44 10 44 4 0 11 -8 14 -17z"/>
<path d="M1399 2357 c-35 -23 -66 -73 -54 -85 4 -4 10 -1 13 7 13 36 58 72 99
78 35 5 47 1 77 -22 48 -37 56 -26 11 14 -45 39 -96 42 -146 8z"/>
<path d="M1432 2308 c-7 -7 -12 -39 -12 -75 0 -49 3 -63 15 -63 9 0 15 9 15
25 0 17 4 23 14 19 20 -8 53 12 61 36 10 31 -20 70 -53 70 -16 0 -33 -5 -40
-12z m62 -27 c10 -16 -5 -41 -25 -41 -14 0 -19 7 -19 25 0 18 5 25 19 25 11 0
22 -4 25 -9z"/>
<path d="M1196 2021 c-3 -4 -1 -13 4 -20 10 -16 40 -7 40 12 0 14 -36 21 -44
8z"/>
<path d="M1737 2006 c-26 -7 -64 -26 -85 -43 -29 -23 -43 -28 -62 -22 -47 13
-234 10 -295 -6 -126 -33 -246 -116 -301 -211 -26 -44 -38 -52 -49 -34 -12 20
-73 11 -104 -16 -27 -22 -31 -32 -31 -72 1 -32 7 -55 21 -71 l20 -24 21 21
c21 20 21 22 5 40 -39 43 2 99 53 72 17 -9 21 -18 18 -41 -4 -27 -2 -30 20
-27 19 2 28 14 43 53 39 105 128 190 247 236 73 29 287 39 342 17 33 -14 35
-13 70 22 37 37 118 69 139 55 7 -4 11 -46 11 -108 l0 -102 34 -22 c22 -14 43
-41 58 -72 22 -50 23 -50 73 -53 l50 -3 3 -98 c4 -115 -3 -130 -57 -121 l-36
6 -12 -51 c-16 -67 -61 -131 -119 -170 -26 -17 -51 -31 -55 -31 -4 0 -9 -26
-11 -57 l-3 -58 -85 0 -85 0 -3 33 -3 32 -110 0 c-108 0 -109 0 -104 -22 10
-42 -6 -49 -91 -46 l-79 3 -3 56 c-3 52 -5 58 -32 69 -41 17 -117 101 -143
158 -17 38 -22 66 -22 144 l0 98 -31 0 c-25 0 -37 -8 -55 -35 -13 -19 -31 -36
-39 -38 -12 -3 -11 -6 4 -12 11 -5 26 -4 36 3 16 10 18 4 22 -58 8 -112 78
-238 162 -290 28 -17 34 -27 39 -66 3 -28 13 -54 28 -70 22 -23 28 -25 123
-22 l101 3 20 32 c18 30 24 32 73 33 40 0 52 -4 52 -15 0 -8 9 -24 20 -35 17
-17 33 -20 114 -20 79 0 97 3 120 21 21 17 26 29 26 67 0 44 3 49 36 67 53 28
120 108 139 165 15 45 20 50 46 50 16 0 38 9 49 20 18 18 20 33 20 148 0 146
-7 162 -73 162 -32 0 -38 4 -53 37 -10 20 -33 51 -51 69 -32 32 -33 35 -33
118 0 74 -3 88 -22 110 -29 32 -61 38 -121 22z m-796 -523 c0 -10 2 -26 4 -35
2 -10 2 -18 0 -18 -8 0 -32 59 -27 64 11 11 22 6 23 -11z m494 -440 c-11 -3
-26 -10 -33 -16 -15 -12 -27 -3 -17 12 3 6 21 10 38 10 21 -1 25 -3 12 -6z
m116 -20 c6 -15 16 -31 22 -35 9 -6 9 -8 0 -8 -6 0 -21 13 -33 29 -13 20 -31
31 -53 34 -27 3 -26 4 11 5 38 2 44 -1 53 -25z"/>
<path d="M2120 1942 l-35 -34 34 18 c30 17 50 40 40 47 -2 2 -20 -12 -39 -31z"/>
<path d="M730 1937 c0 -21 35 -57 55 -57 8 0 15 -4 15 -9 0 -12 37 -24 49 -16
18 11 -1 35 -27 35 -16 0 -39 13 -59 32 -25 24 -33 28 -33 15z"/>
<path d="M2158 1916 c-21 -18 -48 -32 -60 -32 -35 1 -33 -28 2 -41 29 -11 30
-10 24 13 -6 24 3 29 48 26 11 -1 19 9 23 29 4 17 5 32 3 34 -1 2 -20 -12 -40
-29z"/>
<path d="M1755 1911 c-51 -23 -95 -74 -95 -109 1 -23 3 -21 21 18 19 45 79 97
97 86 6 -3 12 1 16 9 3 8 4 15 3 15 -1 0 -20 -9 -42 -19z"/>
<path d="M1736 1869 c-42 -33 -35 -68 24 -123 27 -25 53 -46 57 -45 4 0 -2 7
-14 16 -21 14 -23 24 -23 94 0 44 -4 79 -9 79 -4 0 -20 -9 -35 -21z m34 -56
l0 -57 -20 22 c-25 26 -26 60 -2 78 9 7 18 14 20 14 1 0 2 -26 2 -57z"/>
<path d="M927 1869 c-9 -6 -21 -19 -27 -29 -13 -24 -3 -70 16 -70 8 0 14 -4
14 -9 0 -17 41 1 56 25 19 28 11 57 -19 77 -16 10 -28 12 -40 6z m33 -23 c0
-8 7 -16 15 -20 8 -3 15 -10 15 -16 0 -5 -7 -10 -15 -10 -8 0 -15 -7 -15 -15
0 -8 -7 -15 -15 -15 -8 0 -15 6 -15 14 0 8 -7 17 -16 20 -14 5 -13 10 8 31 26
28 38 31 38 11z"/>
<path d="M1320 1845 c-26 -31 3 -38 141 -37 133 1 157 7 146 36 -9 23 -268 24
-287 1z"/>
<path d="M1974 1809 c-8 -14 11 -33 25 -25 6 4 11 11 11 16 0 13 -29 20 -36 9z"/>
<path d="M1280 1778 c-19 -5 -43 -17 -53 -26 -15 -13 -20 -14 -26 -3 -13 21
-32 3 -25 -24 8 -31 -27 -53 -47 -29 -12 14 -15 14 -31 -6 -13 -17 -15 -26 -8
-35 8 -10 7 -16 -3 -22 -15 -9 -37 -66 -36 -92 0 -9 5 -2 11 14 6 17 16 37 24
45 7 8 17 27 23 41 7 19 17 27 35 27 31 0 32 -7 7 -58 -11 -22 -17 -49 -14
-61 4 -16 10 -9 23 30 9 28 25 60 35 71 25 28 96 60 131 60 35 0 104 -30 123
-54 13 -16 15 -15 35 3 27 26 88 51 123 51 39 0 110 -37 133 -70 12 -16 27
-46 35 -67 7 -21 14 -33 14 -27 2 24 -31 99 -52 122 -54 58 -151 71 -230 32
l-45 -23 -46 23 c-68 33 -184 26 -208 -13 -5 -8 -8 -7 -8 4 0 20 24 41 78 68
23 12 42 24 42 26 0 3 -1 5 -2 4 -2 0 -19 -5 -38 -11z"/>
<path d="M1265 1661 c-64 -39 -94 -98 -87 -172 4 -41 12 -52 126 -165 66 -66
131 -126 143 -133 21 -11 32 -2 147 105 138 128 173 180 161 236 -34 158 -206
196 -281 63 -10 -19 -12 -18 -28 13 -18 36 -81 71 -126 72 -14 0 -38 -8 -55
-19z m50 -31 c0 -7 -15 -22 -32 -33 -31 -18 -33 -18 -40 -1 -4 11 1 23 17 36
26 21 55 20 55 -2z m372 -24 c39 -42 49 -77 34 -115 -7 -15 -67 -82 -135 -149
l-122 -121 -79 79 c-44 44 -84 80 -89 80 -5 0 3 -9 18 -21 14 -11 26 -26 26
-32 0 -6 -16 4 -35 23 -19 18 -32 37 -29 41 3 5 -1 6 -8 4 -8 -3 -24 8 -36 25
-13 16 -18 30 -13 30 5 0 3 12 -5 28 -23 45 -24 44 63 85 17 8 41 29 54 46 12
17 26 31 30 31 4 0 26 -16 49 -35 23 -19 47 -35 54 -35 7 0 28 14 47 31 45 41
67 50 109 44 24 -3 46 -16 67 -39z"/>
<path d="M1803 1634 c-8 -21 19 -46 40 -38 9 3 17 17 17 30 0 19 -5 24 -25 24
-14 0 -28 -7 -32 -16z"/>
<path d="M1943 1521 c1 -72 -48 -165 -123 -234 -60 -56 -130 -90 -210 -103
-38 -6 -66 -24 -38 -24 27 0 130 30 167 49 103 53 201 183 217 287 5 38 11 47
38 59 l31 13 -41 1 -42 1 1 -49z"/>
<path d="M1990 1485 c0 -19 5 -35 10 -35 6 0 10 16 10 35 0 19 -4 35 -10 35
-5 0 -10 -16 -10 -35z"/>
<path d="M1040 1498 c0 -10 -4 -18 -10 -18 -5 0 -1 -9 10 -20 25 -25 17 -44
-16 -37 -23 4 -33 -6 -15 -17 5 -3 12 -17 15 -31 8 -33 28 -56 99 -115 59 -51
132 -83 205 -93 56 -7 45 9 -13 17 -102 16 -216 94 -274 189 -22 36 -22 37 -3
37 28 0 33 21 17 66 -8 22 -14 31 -15 22z"/>
<path d="M1732 1401 c-7 -15 -43 -59 -80 -98 -105 -108 -115 -127 -18 -33 84
81 121 130 114 151 -2 5 -9 -4 -16 -20z"/>
<path d="M1180 1417 c-1 -22 37 -70 117 -147 l88 -85 -86 90 c-48 50 -94 104
-103 120 -8 17 -15 26 -16 22z"/>
<path d="M2220 1371 c0 -11 -2 -25 -3 -33 -2 -7 -2 -10 0 -5 3 4 8 5 13 2 14
-9 17 30 3 43 -11 10 -13 9 -13 -7z"/>
<path d="M1125 1310 c-10 -17 22 -47 35 -34 7 7 4 16 -9 28 -14 12 -21 14 -26
6z"/>
<path d="M1778 1309 c-21 -12 -24 -39 -4 -39 7 0 19 7 26 15 17 21 1 37 -22
24z"/>
<path d="M2106 1224 c-9 -8 -16 -25 -16 -37 0 -22 1 -21 20 3 18 23 26 50 16
50 -3 0 -12 -7 -20 -16z"/>
<path d="M1527 1174 c-3 -3 -34 -6 -68 -5 l-62 1 31 -31 32 -31 40 32 c36 28
47 40 37 40 -2 0 -6 -3 -10 -6z"/>
<path d="M1995 1064 c-13 -13 -14 -19 -4 -25 17 -10 39 8 32 27 -7 18 -8 18
-28 -2z"/>
<path d="M2040 1025 c-32 -33 -37 -61 -5 -35 8 7 15 9 15 4 0 -19 23 18 26 41
1 14 2 25 0 25 -1 0 -17 -16 -36 -35z"/>
<path d="M855 1021 c-3 -5 5 -17 17 -25 25 -18 38 -20 38 -7 0 14 -48 42 -55
32z"/>
<path d="M1860 919 c-29 -23 -135 -75 -173 -85 -27 -6 -54 -40 -43 -52 3 -3 6
0 6 6 0 6 19 16 43 23 57 15 169 75 198 105 28 30 6 33 -31 3z"/>
<path d="M1026 904 c-12 -11 -13 -20 -6 -34 15 -28 171 -102 217 -104 34 -1
38 2 38 23 0 27 -5 30 -90 62 -33 13 -62 25 -65 29 -10 11 -59 40 -69 40 -5 0
-17 -7 -25 -16z m84 -60 c0 -8 -3 -14 -6 -14 -5 0 -47 27 -73 46 -2 2 -1 10 3
19 5 14 11 12 41 -11 19 -14 35 -33 35 -40z m103 -28 c62 -23 81 -53 26 -42
-55 11 -119 44 -119 62 0 12 5 14 18 9 9 -5 43 -17 75 -29z"/>
<path d="M1880 868 c-57 -41 -65 -46 -165 -84 -80 -30 -45 -31 42 0 37 13 75
24 83 23 14 0 100 51 100 59 0 2 -8 1 -17 -3 -16 -6 -16 -4 1 15 32 36 14 32
-44 -10z"/>
<path d="M1000 851 c34 -29 201 -111 225 -110 11 0 -8 10 -41 23 -34 12 -83
35 -110 51 -27 16 -60 35 -74 43 l-25 14 25 -21z"/>
<path d="M1735 763 c-44 -18 -73 -33 -64 -33 25 0 147 39 154 50 12 19 -14 15
-90 -17z"/>
<path d="M873 2136 c-15 -13 -25 -27 -21 -31 4 -4 21 4 38 19 18 14 36 24 41
20 5 -3 9 0 9 5 0 19 -38 12 -67 -13z"/>
<path d="M904 2115 c-4 -8 -1 -22 6 -30 10 -12 10 -15 -1 -15 -9 0 -10 -3 -2
-11 6 -6 16 -8 22 -5 17 11 13 34 -6 45 -17 10 -17 10 0 11 9 0 17 5 17 10 0
16 -30 12 -36 -5z"/>
<path d="M1963 2134 c-33 -34 -21 -45 15 -12 15 14 34 28 42 31 10 3 7 6 -8 6
-13 1 -34 -11 -49 -25z"/>
<path d="M1993 2115 c-3 -9 2 -22 13 -30 19 -14 18 -14 0 -15 -15 0 -17 -3 -9
-11 6 -6 16 -8 22 -5 17 11 13 34 -6 45 -17 10 -17 10 0 11 9 0 17 5 17 10 0
16 -30 12 -37 -5z"/>
<path d="M1423 788 c-13 -6 -23 -14 -23 -18 0 -8 37 -6 46 2 3 4 22 4 42 2 35
-5 36 -5 18 10 -23 18 -51 19 -83 4z"/>
<path d="M1443 744 c-3 -9 0 -20 8 -25 12 -8 12 -11 -1 -19 -13 -8 -13 -10 2
-10 26 0 33 21 13 37 -17 12 -18 13 -1 13 9 0 14 5 11 10 -9 15 -25 12 -32 -6z"/>
</g>
</svg>
