<?xml version="1.0" encoding="utf-8"?><svg version="1.1" id="Layer_1" xmlns="http://www.w3.org/2000/svg" xmlns:xlink="http://www.w3.org/1999/xlink" x="0px" y="0px" viewBox="0 0 122.88 120.48" style="enable-background:new 0 0 122.88 120.48" xml:space="preserve"><style type="text/css"><![CDATA[
	.st0{fill-rule:evenodd;clip-rule:evenodd;}
]]></style><g><path class="st0" d="M106.91,56.1c1.41-20.5-1.74-33.09-24.15-33.09l-3.28,0l-0.01-6.25c0-3.12-0.74-3.66-2.98-1.52L64.32,26.8 c-1.47,1.39-1.26,2.3,0.14,3.65l12.01,11.51c2.1,2.12,3.04,1.52,3-1.4v-7.35C99.63,31.94,96.6,44.18,96.6,56.1H106.91L106.91,56.1 L106.91,56.1z M94.83,64.38c-7.75,0-14.76,3.14-19.83,8.22c-5.08,5.08-8.22,12.09-8.22,19.83c0,7.74,3.14,14.76,8.22,19.83 c5.08,5.08,12.09,8.22,19.83,8.22s14.76-3.14,19.83-8.22c5.08-5.07,8.22-12.08,8.22-19.83s-3.14-14.76-8.22-19.83 C109.59,67.52,102.58,64.38,94.83,64.38L94.83,64.38L94.83,64.38z M106.41,83.61l-7.49,1.17c-0.38-0.95-0.71-1.6-1.01-1.96 s-0.8-0.73-1.49-1.11v5.81c4.06,1.09,6.78,2.24,8.15,3.43c1.8,1.63,2.71,3.67,2.71,6.17c0,1.46-0.32,2.79-0.97,4.01 c-0.65,1.22-1.48,2.24-2.49,3.05c-1.01,0.82-2.08,1.4-3.22,1.78c-1.14,0.37-2.53,0.58-4.18,0.65v3.78H93.5v-3.78 c-1.97-0.17-3.57-0.49-4.79-0.95c-1.22-0.46-2.29-1.09-3.17-1.91c-0.88-0.81-1.58-1.69-2.06-2.63c-0.48-0.94-0.84-2.08-1.08-3.41 l8.1-0.94c0.24,1.32,0.57,2.27,0.98,2.85c0.4,0.59,1.08,1.11,2.02,1.56v-7.1c-2.71-0.75-4.63-1.4-5.77-1.95s-2.11-1.44-2.94-2.65 c-0.83-1.21-1.25-2.69-1.25-4.43c0-2.38,0.83-4.38,2.5-5.98c1.67-1.61,4.16-2.5,7.45-2.67v-1.97h2.92v1.98 c3,0.19,5.3,0.89,6.89,2.13C104.88,79.79,105.92,81.46,106.41,83.61L106.41,83.61L106.41,83.61z M26.88,25.78h6.1v4.81h-5.39 c-0.07,1.13-0.28,2.15-0.62,3.07c-0.28,0.69-0.75,1.41-1.4,2.16c0.75-0.16,1.39-0.24,1.92-0.24c0.69,0,1.58,0.13,2.67,0.39 c1.5,0.34,2.7,0.52,3.6,0.52c0.73,0,1.37-0.06,1.91-0.19c0.55-0.12,1.26-0.38,2.14-0.78l2.74,6c-1.32,0.66-2.49,1.12-3.5,1.37 c-1,0.25-2.08,0.38-3.23,0.38c-1.26,0-2.69-0.22-4.32-0.66c-2.13-0.58-3.44-0.92-3.95-1.01c-0.5-0.09-1.06-0.14-1.65-0.14 c-1.73,0-3.63,0.6-5.72,1.81l-2.6-5.72c2.82-2.01,4.24-4.03,4.24-6.05c0-0.11-0.02-0.41-0.04-0.9h-4.19v-4.81h3 c-0.5-1.76-0.8-2.79-0.87-3.07c-0.08-0.42-0.12-0.95-0.12-1.58c0-1.67,0.45-3.17,1.34-4.5c0.88-1.33,2.06-2.3,3.51-2.89 c1.45-0.6,3.41-0.9,5.87-0.9c2.3,0,4.12,0.26,5.47,0.78c1.34,0.52,2.48,1.37,3.41,2.56c0.93,1.2,1.57,2.65,1.92,4.35l-7.68,1.19 c-0.38-1.42-0.83-2.37-1.33-2.84c-0.5-0.47-1.07-0.7-1.71-0.7c-0.78,0-1.4,0.25-1.88,0.76s-0.72,1.23-0.72,2.16 c0,0.5,0.05,0.97,0.14,1.44C26,22.99,26.33,24.08,26.88,25.78L26.88,25.78L26.88,25.78z M93.49,81.62 c-0.87,0.28-1.46,0.63-1.8,1.04c-0.33,0.41-0.5,0.9-0.5,1.47c0,0.58,0.17,1.09,0.52,1.53c0.34,0.44,0.94,0.8,1.79,1.1L93.49,81.62 L93.49,81.62L93.49,81.62z M96.41,101.4c1.14-0.26,1.97-0.68,2.5-1.26s0.8-1.24,0.8-1.96c0-0.63-0.22-1.21-0.67-1.75 c-0.45-0.53-1.32-1.02-2.62-1.47L96.41,101.4L96.41,101.4L96.41,101.4z M28.05,0C20.3,0,13.29,3.14,8.22,8.22 C3.14,13.29,0,20.31,0,28.05s3.14,14.76,8.22,19.83c5.08,5.08,12.09,8.22,19.83,8.22c7.74,0,14.76-3.14,19.83-8.22 c5.08-5.07,8.22-12.08,8.22-19.83s-3.14-14.76-8.22-19.83C42.81,3.14,35.8,0,28.05,0L28.05,0L28.05,0z M15.76,64.55 c-1.41,20.5,1.74,33.09,24.15,33.09h3.28l0.01,6.25c0,3.12,0.73,3.66,2.98,1.52l12.17-11.56c1.47-1.39,1.26-2.3-0.14-3.65 L46.2,78.69c-2.1-2.13-3.04-1.53-3,1.4v7.35c-20.15,1.27-17.12-10.97-17.12-22.89H15.76L15.76,64.55L15.76,64.55z"/></g></svg>