<svg id="Layer_1" data-name="Layer 1" xmlns="http://www.w3.org/2000/svg" viewBox="0 0 122.88 117.32"><defs><style>.cls-1{fill-rule:evenodd;}</style></defs><title>pound-price-list</title><path class="cls-1" d="M41.81,62a3.36,3.36,0,0,1,0-6.62H78.63a3.36,3.36,0,0,1,0,6.62Zm61.5,20.4H112v6.89h-7.72a14.5,14.5,0,0,1-.9,4.4,10.87,10.87,0,0,1-2,3.09,13.4,13.4,0,0,1,2.76-.35A17.57,17.57,0,0,1,108,97a24.46,24.46,0,0,0,5.15.73,12.37,12.37,0,0,0,2.75-.27A16.28,16.28,0,0,0,119,96.3l3.92,8.61a25.76,25.76,0,0,1-5,2,18.54,18.54,0,0,1-4.63.54,23.83,23.83,0,0,1-6.18-.94c-3-.83-4.93-1.32-5.67-1.45a13.48,13.48,0,0,0-2.36-.2,16.6,16.6,0,0,0-8.19,2.59l-3.73-8.19q6.06-4.34,6.07-8.67c0-.16,0-.59-.07-1.3h-6V82.36h4.3c-.72-2.52-1.15-4-1.23-4.39A13,13,0,0,1,90,75.7a11.33,11.33,0,0,1,1.92-6.46,10.86,10.86,0,0,1,5-4.14,22.48,22.48,0,0,1,8.41-1.3,22.66,22.66,0,0,1,7.84,1.11,11,11,0,0,1,4.88,3.68,14.79,14.79,0,0,1,2.76,6.23l-11,1.71a9,9,0,0,0-1.91-4.07,3.48,3.48,0,0,0-2.45-1,3.56,3.56,0,0,0-2.69,1.09,4.32,4.32,0,0,0-1,3.09,9.86,9.86,0,0,0,.21,2.06c.12.67.59,2.22,1.38,4.67ZM74,110.67a3.33,3.33,0,0,1,0,6.65H7.74A7.75,7.75,0,0,1,0,109.58V7.73A7.75,7.75,0,0,1,7.74,0h95a7.75,7.75,0,0,1,7.74,7.73V46.2a3.33,3.33,0,0,1-6.65,0V7.73a1.13,1.13,0,0,0-1.09-1.08h-95A1.11,1.11,0,0,0,7,7a1.14,1.14,0,0,0-.32.77V109.57a1,1,0,0,0,.32.76,1.09,1.09,0,0,0,.77.33ZM41.81,86.35a3.42,3.42,0,0,1,0-6.73h29a3.42,3.42,0,0,1,0,6.73Zm0-48.7A3.09,3.09,0,0,1,39,34.33,3.08,3.08,0,0,1,41.81,31H78.63a3.09,3.09,0,0,1,2.79,3.31,3.09,3.09,0,0,1-2.79,3.32Zm-16,40.8a3.93,3.93,0,1,1-3.92,3.92,3.92,3.92,0,0,1,3.92-3.92Zm0-24a3.93,3.93,0,1,1-3.92,3.92,3.92,3.92,0,0,1,3.92-3.92Zm0-24a3.93,3.93,0,1,1-3.92,3.92,3.92,3.92,0,0,1,3.92-3.92Z"/></svg>